# 3ds Max Wavefront OBJ Exporter v0.97b - (c)2007 guruware
# File Created: 16.07.2013 08:48:58

mtllib SMD_MorphineInjectorUsed.mtl

#
# object Cylinder001
#

v  -1.110798239708 0.109196588397 2.480270624161
v  -0.894467711449 0.103274136782 1.908480882645
v  -0.805007934570 0.333704590797 1.941762924194
v  -1.024335861206 0.331906408072 2.512437343597
v  -1.319985151291 0.016947150230 2.403843879700
v  -1.110906362534 0.007826715708 1.829404830933
v  -1.529357671738 0.109196588397 2.327927350998
v  -1.327537178993 0.103274136782 1.750856518745
v  -1.616268157959 0.331906437874 2.296991825104
v  -1.417460680008 0.333704620600 1.718848466873
v  -1.529805779457 0.554616272449 2.329158544540
v  -1.328000783920 0.564135074615 1.752130508423
v  -1.320618867874 0.646865665913 2.405585289001
v  -1.111562132835 0.659582495689 1.831206560135
v  -1.111246347427 0.554616272449 2.481501817703
v  -0.894931435585 0.564135074615 1.909754872322
v  -1.320291996002 0.321906477213 2.404686927795
v  -1.310905098915 0.331906408072 2.408134698868
v  -1.320312023163 0.341906368732 2.404742240906
v  -1.329698920250 0.331906408072 2.401294469833
v  0.365859389305 0.121897220612 -1.576812982559
v  0.452321767807 0.344607055187 -1.544646263123
v  -0.761406898499 0.334167838097 1.790046095848
v  -0.847869277000 0.111458018422 1.757879137993
v  0.156672477722 0.029647797346 -1.653239727020
v  -1.057056188583 0.019208580256 1.681452512741
v  -0.052700042725 0.121897220612 -1.729156017303
v  -1.266428709030 0.111458018422 1.605535984039
v  -0.139610528946 0.344607084990 -1.760091781616
v  -1.353339195251 0.334167867899 1.574600338936
v  -0.053148150444 0.567316889763 -1.727924823761
v  -1.266876816750 0.556877732277 1.606767296791
v  0.156038761139 0.659566283226 -1.651498317719
v  -1.057689905167 0.649127125740 1.683193922043
v  0.365411281586 0.567316889763 -1.575581789017
v  -0.848317444324 0.556877732277 1.759110450745
v  -0.896535515785 0.118883192539 1.868838787079
v  -0.874022126198 0.123852297664 1.793133258820
v  -0.792419493198 0.334044188261 1.823492288589
v  -0.813093841076 0.333812206984 1.899881958961
v  -1.098414063454 0.029856652021 1.795082330704
v  -1.071451187134 0.036787927151 1.721002459526
v  -1.300471663475 0.118883192539 1.721817970276
v  -1.269055366516 0.123852297664 1.649353027344
v  -1.384345889091 0.333812236786 1.691963195801
v  -1.351081013680 0.334044218063 1.620156049728
v  -1.300904154778 0.548741221428 1.723006248474
v  -1.269478321075 0.544236123562 1.650515079498
v  -1.099025607109 0.637767791748 1.796762824059
v  -1.072049260139 0.631300449371 1.722645878792
v  -0.896968007088 0.548741281033 1.870027065277
v  -0.874445080757 0.544236123562 1.794295310974
v  0.653120517731 0.109976172447 -2.324315547943
v  0.745125293732 0.346962243319 -2.290086269379
v  0.471293926239 0.344607055187 -1.537740945816
v  0.379289150238 0.107620969415 -1.571969747543
v  0.430524230003 0.011813312769 -2.405641078949
v  0.156692862511 0.009458124638 -1.653295516968
v  0.207731485367 0.109974980354 -2.486423492432
v  -0.066099882126 0.107619777322 -1.734077930450
v  0.115248680115 0.346963971853 -2.519342899323
v  -0.158582687378 0.344608783722 -1.766997337341
v  0.207253575325 0.583948373795 -2.485113620758
v  -0.066577792168 0.581593155861 -1.732768058777
v  0.429849743843 0.682111144066 -2.403788089752
v  0.156018376350 0.679755985737 -1.651442527771
v  0.652643561363 0.583948373795 -2.323005199432
v  0.378812193871 0.581593155861 -1.570659637451
v  0.430186986923 0.346962243319 -2.404714584351
v  0.134220838547 0.346962273121 -2.512437343597
v  0.981340646744 0.316268056631 -1.244102716446
v  0.992530107498 0.315122336149 -0.987836599350
v  0.993047714233 0.002243787050 -0.989258289337
v  0.981857538223 0.003389507532 -1.245523691177
v  0.792218685150 0.316742151976 -1.417399168015
v  0.792736291885 0.003863871098 -1.418821573257
v  0.535952329636 0.316267758608 -1.406213045120
v  0.536469221115 0.003389507532 -1.407633543015
v  0.362653493881 0.315122395754 -1.217091560364
v  0.363170385361 0.002243906260 -1.218512535095
v  0.373843908310 0.313977062702 -0.960827112198
v  0.374361038208 0.001098334789 -0.962248325348
v  0.562965393066 0.313502490520 -0.787530183792
v  0.563482522964 0.000624030828 -0.788951635361
v  0.819233894348 0.313976585865 -0.798718690872
v  0.819751262665 0.001098334789 -0.800139427185
v  0.677592039108 0.315122574568 -1.102464675903
v  -1.705303668976 0.328514218330 3.491736412048
v  -1.714710712433 0.338514178991 3.488343715668
v  -1.724097609520 0.328514218330 3.484895706177
v  -1.714690566063 0.318514257669 3.488288402557
# 91 vertices

vn 0.658960163593 -0.707043588161 0.256633996964
vn 0.933434605598 -0.000052536223 0.358747750521
vn 0.933434605598 -0.000052531112 0.358747750521
vn -0.005102245603 -0.999888777733 0.014018306509
vn -0.005102235824 -0.999888777733 0.014018310234
vn -0.669754087925 -0.707043468952 -0.226978406310
vn -0.945651054382 -0.000052495325 -0.325183480978
vn -0.945651054382 -0.000052443400 -0.325183480978
vn -0.671176612377 0.706938624382 -0.223069712520
vn -0.007114171050 0.999783754349 0.019545966759
vn -0.007114162203 0.999783754349 0.019545972347
vn 0.657537519932 0.706938624382 0.260542660952
vn 0.657537519932 0.706938564777 0.260542660952
vn -0.342018663883 -0.002941680141 0.939688622952
vn 0.665174543858 -0.707103848457 0.239890128374
vn 0.939692735672 -0.000000020536 0.342020153999
vn 0.939692735672 0.000000000000 0.342020153999
vn 0.665174603462 -0.707103788853 0.239890158176
vn 0.001006094390 -0.999995768070 -0.002764281817
vn 0.001006102306 -0.999995768070 -0.002764279023
vn -0.663751661777 -0.707103788853 -0.243799418211
vn -0.939692735672 0.000000061608 -0.342020153999
vn -0.939692735672 0.000000054548 -0.342020153999
vn -0.665174484253 0.707103908062 -0.239890098572
vn -0.665174424648 0.707103908062 -0.239890083671
vn -0.001006113715 0.999995768070 0.002764274832
vn -0.001006143866 0.999995768070 0.002764263889
vn 0.663751661777 0.707103848457 0.243799418211
vn 0.663751602173 0.707103908062 0.243799388409
vn 0.691739976406 -0.704316616058 0.159480765462
vn 0.691739976406 -0.704316616058 0.159480780363
vn 0.965272724628 0.000249083707 0.261244565248
vn 0.965272724628 0.000249107106 0.261244595051
vn 0.029955621809 -0.996157169342 -0.082302212715
vn 0.029955588281 -0.996157169342 -0.082302235067
vn -0.632415950298 -0.704316496849 -0.322472542524
vn -0.907366573811 0.000249023346 -0.420340329409
vn -0.907366573811 0.000249143952 -0.420340299606
vn -0.633833706379 0.704814732075 -0.318576991558
vn -0.633833587170 0.704814732075 -0.318576991558
vn 0.027950489894 0.996655225754 -0.076793529093
vn 0.027950452641 0.996655225754 -0.076793566346
vn 0.690322160721 0.704814672470 0.163376122713
vn 0.690322279930 0.704814553261 0.163376152515
vn 0.925535440445 -0.333386778831 -0.179548263550
vn 0.481070220470 -0.806881606579 -0.342802524567
vn -0.148172050714 -0.806881725788 -0.571828007698
vn -0.593589961529 -0.333386719227 -0.732464611530
vn -0.594263613224 0.336236029863 -0.730613529682
vn -0.149798303843 0.809730768204 -0.567359507084
vn 0.479443669319 0.809730947018 -0.338333815336
vn 0.924861669540 0.336235940456 -0.177697241306
vn 0.685421168804 -0.357704728842 0.634228110313
vn 0.684703588486 0.355571389198 0.636199831963
vn 0.210248425603 0.859933555126 0.465091317892
vn -0.460014581680 0.859933555126 0.221135586500
vn -0.933454632759 0.355571478605 0.047238379717
vn -0.932737112045 -0.357704669237 0.045266747475
vn -0.458282142878 -0.862066924572 0.216375350952
vn 0.211981087923 -0.862066924572 0.460331201553
vn 0.665174543858 -0.707103788853 0.239890128374
vn 0.939692735672 0.000000041072 0.342020153999
vn 0.001007290906 -0.999995768070 -0.002763846423
vn 0.001007286017 -0.999995768070 -0.002763848053
vn -0.663750827312 -0.707104682922 -0.243799105287
vn -0.939692735672 0.000001355368 -0.342020153999
vn -0.939692735672 0.000001347667 -0.342020153999
vn -0.665173649788 0.707104802132 -0.239889800549
vn -0.001006094390 0.999995768070 0.002764281817
vn -0.001006128150 0.999995768070 0.002764269477
vn 0.663751661777 0.707103788853 0.243799418211
vn 0.342018663883 0.002941680141 -0.939688622952
vn 0.342018634081 0.002941679908 -0.939688563347
vn 0.906304776669 0.003417037195 -0.422610998154
vn 0.939692497253 0.000000281468 0.342020779848
vn 0.939692914486 -0.000000550733 0.342019736767
vn 0.906305074692 0.003417880274 -0.422610461712
vn 0.342019587755 0.004836144857 -0.939680457115
vn 0.342018872499 0.004835827276 -0.939680695534
vn -0.422620058060 0.003418338019 -0.906300604343
vn -0.422622084618 0.003416953143 -0.906299650669
vn -0.939693272114 0.000000606270 -0.342018604279
vn -0.939693272114 0.000000829127 -0.342018634081
vn -0.906304597855 -0.003417244647 0.422611325979
vn -0.906304597855 -0.003417630680 0.422611325979
vn -0.342015773058 -0.004834223539 0.939681828022
vn -0.342015951872 -0.004833976738 0.939681768417
vn 0.422621607780 -0.003417673055 0.906299948692
vn 0.422621428967 -0.003417441156 0.906300008297
vn -0.001653314335 0.999988436699 0.004542023409
vn -0.001653086161 0.999988436699 0.004542512354
vn -0.001653243555 0.999988436699 0.004541494884
vn -0.001653455663 0.999988436699 0.004541296046
vn -0.001652337029 0.999988436699 0.004543289542
vn -0.001652829116 0.999988436699 0.004543256015
vn -0.001652801759 0.999988436699 0.004542522132
vn -0.001651729341 0.999988436699 0.004543006420
vn -0.001652977313 0.999988436699 0.004540875088
vn -0.001653173123 0.999988436699 0.004540966358
vn -0.001653266489 0.999988436699 0.004541753791
vn -0.001653819112 0.999988436699 0.004540568683
vn 0.663751661777 0.707103729248 0.243799403310
vn -0.665174543858 0.707103848457 -0.239890128374
vn -0.663751661777 -0.707103669643 -0.243799403310
vn 0.665174424648 -0.707103788853 0.239890098572
# 105 vertex normals

vt 0.875000000000 0.000000000000 1.000000000000
vt 0.875000000000 0.442736983299 1.000000000000
vt 0.750000000000 0.442736983299 1.000000000000
vt 0.750000000000 0.000000000000 1.000000000000
vt 1.000000000000 0.000000000000 1.000000000000
vt 1.000000000000 0.442736983299 1.000000000000
vt 0.125000014901 0.000000000000 1.000000000000
vt 0.125000014901 0.442736983299 1.000000000000
vt 0.000000037945 0.442736983299 1.000000000000
vt 0.000000037945 0.000000000000 1.000000000000
vt 0.250000029802 0.000000000000 1.000000000000
vt 0.250000029802 0.442736983299 1.000000000000
vt 0.375000059605 0.000000000000 1.000000000000
vt 0.375000059605 0.442736983299 1.000000000000
vt 0.500000000000 0.000000000000 1.000000000000
vt 0.500000000000 0.442736983299 1.000000000000
vt 0.625000000000 0.000000000000 1.000000000000
vt 0.625000000000 0.442736983299 1.000000000000
vt 0.000000000000 0.499999970198 -0.250000000000
vt 0.146446585655 0.853553354740 -0.250000000000
vt 0.499999970198 1.000000000000 -0.250000000000
vt 0.484124988317 0.500000000000 -0.250000000000
vt 0.500000000000 0.515874981880 -0.250000000000
vt 0.853553414345 0.853553414345 -0.250000000000
vt 1.000000000000 0.500000000000 -0.250000000000
vt 0.515874981880 0.500000000000 -0.250000000000
vt 0.853553473949 0.146446704865 -0.250000000000
vt 0.500000059605 0.000000000000 -0.250000000000
vt 0.500000000000 0.484124988317 -0.250000000000
vt 0.146446645260 0.146446585655 -0.250000000000
vt 0.875000000000 0.754442989826 1.000000000000
vt 0.750000000000 0.754442989826 1.000000000000
vt 0.750000000000 0.508885979652 1.000000000000
vt 0.875000000000 0.508885979652 1.000000000000
vt 1.000000000000 0.754442989826 1.000000000000
vt 1.000000000000 0.508885979652 1.000000000000
vt 0.125000014901 0.754442989826 1.000000000000
vt 0.000000037945 0.754442989826 1.000000000000
vt 0.000000037945 0.508885979652 1.000000000000
vt 0.125000014901 0.508885979652 1.000000000000
vt 0.250000029802 0.754442989826 1.000000000000
vt 0.250000029802 0.508885979652 1.000000000000
vt 0.375000059605 0.754442989826 1.000000000000
vt 0.375000059605 0.508885979652 1.000000000000
vt 0.500000000000 0.754442989826 1.000000000000
vt 0.500000000000 0.508885979652 1.000000000000
vt 0.625000000000 0.754442989826 1.000000000000
vt 0.625000000000 0.508885979652 1.000000000000
vt 0.875000000000 1.000000000000 1.000000000000
vt 0.750000000000 1.000000000000 1.000000000000
vt 1.000000000000 1.000000000000 1.000000000000
vt 0.125000014901 1.000000000000 1.000000000000
vt 0.000000037945 1.000000000000 1.000000000000
vt 0.250000029802 1.000000000000 1.000000000000
vt 0.375000059605 1.000000000000 1.000000000000
vt 0.500000000000 1.000000000000 1.000000000000
vt 0.625000000000 1.000000000000 1.000000000000
vt 0.500000000000 0.500000000000 0.250000000000
vt 0.500000059605 0.000000000000 0.250000000000
vt 0.687500000000 0.754442989826 1.000000000000
# 60 texture coords

g Cylinder001
usemtl wire_088088225
s 8
f 1/1/1 2/2/1 3/3/2 4/4/3 
f 5/5/4 6/6/5 2/2/1 1/1/1 
f 7/7/6 8/8/6 6/9/5 5/10/4 
f 9/11/7 10/12/8 8/8/6 7/7/6 
f 11/13/9 12/14/9 10/12/8 9/11/7 
f 13/15/10 14/16/11 12/14/9 11/13/9 
f 15/17/12 16/18/13 14/16/11 13/15/10 
f 4/4/3 3/3/2 16/18/13 15/17/12 
s 1
f 5/19/14 1/20/14 4/21/14 17/22/14 
f 4/21/14 18/23/14 17/22/14 
f 4/21/14 15/24/14 13/25/14 18/23/14 
f 13/25/14 19/26/14 18/23/14 
f 13/25/14 11/27/14 9/28/14 19/26/14 
f 9/28/14 20/29/14 19/26/14 
f 9/28/14 7/30/14 5/19/14 20/29/14 
f 17/22/14 20/29/14 5/19/14 
s 8
f 21/31/15 22/32/16 23/33/17 24/34/18 
f 25/35/19 21/31/15 24/34/18 26/36/20 
f 27/37/21 25/38/19 26/39/20 28/40/21 
f 29/41/22 27/37/21 28/40/21 30/42/23 
f 31/43/24 29/41/22 30/42/23 32/44/25 
f 33/45/26 31/43/24 32/44/25 34/46/27 
f 35/47/28 33/45/26 34/46/27 36/48/29 
f 22/32/16 35/47/28 36/48/29 23/33/17 
f 37/2/30 38/34/31 39/33/32 40/3/33 
f 41/6/34 42/36/35 38/34/31 37/2/30 
f 43/8/36 44/40/36 42/39/35 41/9/34 
f 45/12/37 46/42/38 44/40/36 43/8/36 
f 47/14/39 48/44/40 46/42/38 45/12/37 
f 49/16/41 50/46/42 48/44/40 47/14/39 
f 51/18/43 52/48/44 50/46/42 49/16/41 
f 40/3/33 39/33/32 52/48/44 51/18/43 
s off
f 3/3/45 2/2/45 37/2/45 40/3/45 
f 2/2/46 6/6/46 41/6/46 37/2/46 
f 6/9/47 8/8/47 43/8/47 41/9/47 
f 8/8/48 10/12/48 45/12/48 43/8/48 
f 10/12/49 12/14/49 47/14/49 45/12/49 
f 12/14/50 14/16/50 49/16/50 47/14/50 
f 14/16/51 16/18/51 51/18/51 49/16/51 
f 16/18/52 3/3/52 40/3/52 51/18/52 
f 24/34/53 23/33/53 39/33/53 38/34/53 
f 23/33/54 36/48/54 52/48/54 39/33/54 
f 36/48/55 34/46/55 50/46/55 52/48/55 
f 34/46/56 32/44/56 48/44/56 50/46/56 
f 32/44/57 30/42/57 46/42/57 48/44/57 
f 30/42/58 28/40/58 44/40/58 46/42/58 
f 28/40/59 26/39/59 42/39/59 44/40/59 
f 26/36/60 24/34/60 38/34/60 42/36/60 
s 8
f 53/49/61 54/50/17 55/32/62 56/31/61 
f 57/51/63 53/49/61 56/31/61 58/35/64 
f 59/52/65 57/53/63 58/38/64 60/37/65 
f 61/54/66 59/52/65 60/37/65 62/41/67 
f 63/55/68 61/54/66 62/41/67 64/43/68 
f 65/56/69 63/55/68 64/43/68 66/45/70 
f 67/57/71 65/56/69 66/45/70 68/47/29 
f 54/50/17 67/57/71 68/47/29 55/32/62 
s 1
f 69/58/72 65/56/72 67/57/72 54/50/72 
f 69/58/72 70/59/72 63/55/72 65/56/72 
s off
f 70/59/72 61/54/72 63/55/72 
f 70/59/73 59/52/73 61/54/73 
s 1
f 69/58/72 57/53/72 59/52/72 70/59/72 
f 69/58/72 54/50/72 53/49/72 57/51/72 
s off
f 22/32/14 21/31/14 56/31/14 55/32/14 
f 21/31/14 25/35/14 58/35/14 56/31/14 
f 25/38/14 27/37/14 60/37/14 58/38/14 
f 27/37/14 29/41/14 62/41/14 60/37/14 
f 29/41/14 31/43/14 64/43/14 62/41/14 
f 31/43/14 33/45/14 66/45/14 64/43/14 
f 33/45/14 35/47/14 68/47/14 66/45/14 
f 35/47/14 22/32/14 55/32/14 68/47/14 
s 8
f 71/49/74 72/50/75 73/32/76 74/31/77 
f 75/51/78 71/49/74 74/31/77 76/35/79 
f 77/52/80 75/53/78 76/38/79 78/37/81 
f 79/54/82 77/52/80 78/37/81 80/41/83 
f 81/55/84 79/54/82 80/41/83 82/43/85 
f 83/56/86 81/55/84 82/43/85 84/45/87 
f 85/57/88 83/56/86 84/45/87 86/47/89 
f 72/50/75 85/57/88 86/47/89 73/32/76 
s 1
f 81/43/90 83/47/91 87/60/92 79/60/93 
s 2
f 85/50/94 72/45/95 87/60/96 83/47/97 
s 1
f 87/60/92 75/32/98 77/35/99 79/60/93 
s 2
f 71/42/100 75/32/101 87/60/96 72/45/95 
s 1
f 88/23/14 89/26/14 90/29/14 91/22/14 
s off
f 18/23/102 19/26/102 89/26/102 88/23/102 
f 19/26/103 20/29/103 90/29/103 89/26/103 
f 20/29/104 17/22/104 91/22/104 90/29/104 
f 17/22/105 18/23/105 88/23/105 91/22/105 
# 81 polygons - 6 triangles

