# 3ds Max Wavefront OBJ Exporter v0.97b - (c)2007 guruware
# File Created: 16.07.2013 18:36:54

mtllib SMD_AntibioticsBox.mtl

#
# object Box001
#

v  -0.662592053413 0.000000000000 2.338165760040
v  -0.897549390793 0.000541746616 -0.106083303690
v  -0.011722624302 0.000541746616 -0.106083303690
v  0.217301189899 0.000000000000 2.235808610916
v  -0.662592053413 0.787401556969 2.338165760040
v  0.421096384525 0.699505209923 2.235808610916
v  0.192072555423 0.432521820068 0.229688316584
v  -0.897549271584 0.520418167114 0.229688316584
v  0.235311031342 0.410412728786 2.390625476837
v  -0.644582271576 0.482915282249 2.492982625961
v  0.988079786301 0.000000000000 2.131083726883
v  0.988079786301 0.338492482901 2.131083726883
v  0.993357777596 0.337910175323 2.176455020905
v  -0.897549271584 0.276024729013 -0.106088310480
v  -0.897549331188 0.803587496281 -1.274354457855
v  -0.897549331188 0.440491229296 -1.420341491699
v  1.097194552422 0.859514951706 2.133451700211
v  1.115204215050 0.337910175323 2.288268327713
v  0.988079786301 0.787401556969 2.131083726883
v  -0.662592053413 0.481984108686 2.338165760040
v  0.874104201794 0.803587496281 -1.274354457855
v  0.874104201794 0.440491229296 -1.420341491699
v  1.154111623764 0.770640432835 -1.994960784912
v  1.154111623764 1.003814458847 -1.901195287704
v  -1.397206783295 0.921031415462 -1.667931795120
v  -1.397206783295 0.687857329845 -1.761697292328
v  0.874104201794 1.240974307060 -1.127468109131
v  1.154111623764 1.309101939201 -1.807429790497
v  -0.897549331188 1.168860912323 -1.127468109131
v  -1.397206783295 1.154205560684 -1.574166297913
v  -0.011722564697 0.440491229296 -1.420341491699
v  -0.011722564697 0.928024113178 -1.878932237625
v  0.874104201794 0.928024113178 -1.878932237625
v  -0.011722564697 0.990469038486 -1.906713366508
v  0.874104201794 0.990468919277 -1.906713247299
v  -0.657908976078 1.312299013138 -1.933584451675
v  -0.011722564697 1.312298893929 -1.933584451675
v  -0.897549331188 0.990469157696 -1.906713485718
v  -0.556934475899 0.000000000000 2.310813665390
v  -0.551656484604 0.482915282249 2.356184959412
v  -0.556934475899 0.481984108686 2.310813665390
v  -0.556934475899 0.787401556969 2.310813665390
v  0.874104142189 0.000541746616 -0.106083303690
v  0.874104142189 0.351190388203 -0.106088072062
v  1.097194552422 0.338492482901 2.133451461792
v  1.097194552422 0.000000000000 2.133451461792
v  0.874104261398 0.592531561852 0.229688316584
v  0.192072495818 1.080964565277 -1.127468109131
v  -0.897549331188 0.928024113178 -1.878932237625
v  0.634463846684 1.312298774719 -1.933584213257
# 50 vertices

vn -0.000020498261 -1.000000000000 -0.000227099692
vn 0.000000000000 -0.986129939556 -0.165975093842
vn -0.000001534841 -0.986966848373 -0.160923749208
vn -0.000023921253 -1.000000000000 -0.000232946622
vn 0.070952445269 0.987954020500 -0.137523084879
vn -0.087981700897 0.988382816315 -0.123929731548
vn -0.067439824343 0.985397994518 0.156341314316
vn 0.079272925854 0.982720077038 0.167263388634
vn 0.091747835279 -0.321205466986 0.942554712296
vn 0.096869774163 -0.363178730011 0.926670074463
vn 0.112777121365 0.022105827928 0.993374407291
vn 0.113611027598 0.093950882554 0.989073157310
vn 0.993301689625 0.000000000000 -0.115549661219
vn -0.998573720455 0.000001361145 0.053390335292
vn -0.999316692352 -0.012927516364 0.034626949579
vn -1.000000000000 0.000000022522 0.000000018942
vn -1.000000000000 0.000000016071 -0.000000039972
vn 0.112873516977 0.321711957455 0.940085649490
vn 0.059757575393 0.445444136858 0.893313229084
vn 0.122344337404 -0.078747659922 0.989358723164
vn -0.992164433002 -0.098930314183 0.076305769384
vn -0.994614303112 -0.004811461084 0.103533469141
vn -0.993848383427 0.000000000000 0.110749050975
vn 0.919783651829 -0.146398127079 0.364095658064
vn -0.633400499821 -0.288682222366 0.717959761620
vn 0.921200931072 -0.119938097894 0.370140284300
vn -0.633391499519 -0.288709729910 0.717956781387
vn 0.000000000000 -0.685155689716 -0.728396594524
vn 0.000000034131 -0.406478017569 -0.913660466671
vn 0.000000064471 -0.083205014467 -0.996532380581
vn -0.993301689625 0.000000000000 0.115549661219
vn -0.993301689625 0.000000000000 0.115549668670
vn 0.998469054699 -0.000000680717 -0.055313490331
vn 0.999211490154 0.012866600417 -0.037561465055
vn 0.995075106621 -0.000000043773 -0.099123910069
vn 0.995075106621 0.000000000000 -0.099124021828
vn 0.984844863415 0.140833526850 -0.101225212216
vn 0.994740724564 0.011725160293 -0.101751834154
vn 0.429914772511 0.242779105902 -0.869615733624
vn -0.021694382653 0.000000000000 0.999764621258
vn -0.021695397794 -0.000000245719 0.999764621258
vn 0.478242278099 -0.166299447417 -0.862339198589
vn -0.613880932331 -0.267609000206 -0.742654442787
vn 0.250613451004 0.000000000000 0.968087255955
vn 0.250613480806 0.000000000000 0.968087196350
vn -0.627568125725 0.172494098544 -0.759212791920
vn 0.000000000000 -0.948279142380 -0.317437589169
vn -0.207096561790 0.882736325264 0.421767175198
vn -0.070680186152 0.900041103363 0.430035293102
vn -0.227244973183 0.960380911827 0.161332637072
vn -0.995411634445 0.000000154343 0.095685295761
vn -1.000000000000 -0.000000020811 0.000000040165
vn 1.000000000000 -0.000000014753 0.000000044350
vn 1.000000000000 -0.000000029672 -0.000000001100
vn 1.000000000000 0.000000012710 -0.000000037846
vn -0.000003241300 -0.987756729126 -0.156001910567
vn -0.000027817803 -1.000000000000 -0.000239130313
vn -0.244240120053 0.963843464851 -0.106548212469
vn 0.104926079512 -0.418841779232 0.901976764202
vn 0.120261915028 0.455584585667 0.882031619549
vn 0.000000034131 -0.406478852034 -0.913660287857
vn 0.000000219766 -0.083204910159 -0.996532499790
vn 0.072593472898 0.899917125702 0.429976016283
# 63 vertex normals

vt 1.000000000000 0.000000000000 0.000000000000
vt 1.000000000000 0.230000004172 0.000000000000
vt 0.500000000000 0.230000019073 0.000000000000
vt 0.500000000000 0.000000000000 0.000000000000
vt 0.000000000000 0.000000000000 0.000000000000
vt 0.000000000000 0.230000019073 0.000000000000
vt 0.500000000000 0.500000000000 0.000000000000
vt 0.000000000000 0.500000000000 0.000000000000
vt 0.010437190533 0.500000000000 0.000000000000
vt 0.769999980927 0.000000000000 0.000000000000
vt 0.761963367462 0.500000000000 0.000000000000
vt 1.000000000000 1.000000000000 0.000000000000
vt 0.500000000000 1.000000000000 0.000000000000
vt 1.000000000000 0.500000000000 0.000000000000
vt 0.000000000000 1.000000000000 0.000000000000
vt 0.769999980927 1.000000000000 0.000000000000
vt 0.989562809467 0.500000000000 0.000000000000
vt 0.230000019073 0.000000000000 0.000000000000
vt 0.238036632538 0.500000000000 0.000000000000
vt 0.230000004172 1.000000000000 0.000000000000
# 20 texture coords

g Box001
usemtl wire_115115115
s 2
f 1/1/1 2/2/2 3/3/3 4/4/4 
s 4
f 5/5/5 6/4/6 7/3/7 8/6/8 
s 8
f 1/5/9 4/4/10 9/7/11 10/8/12 
s 16
f 11/5/13 12/9/13 13/8/13 
s 64
f 2/10/14 14/11/15 15/8/16 16/5/17 
s 8
f 17/12/18 6/13/19 9/7/11 18/14/20 
s 16
f 19/15/13 13/8/13 12/9/13 
s 64
f 8/16/21 14/11/15 20/17/22 5/12/23 
s off
f 21/14/24 22/1/24 23/1/24 24/14/24 
f 16/5/25 15/8/25 25/8/25 26/5/25 
f 27/12/26 21/14/26 24/14/26 28/12/26 
f 15/8/27 29/15/27 30/15/27 25/8/27 
f 31/13/28 32/13/28 33/15/28 22/15/28 
f 32/13/29 34/13/29 35/15/29 33/15/29 
f 36/12/30 37/13/30 34/13/30 38/12/30 
s 64
f 39/1/31 40/14/31 41/17/32 
f 41/17/32 40/14/31 42/12/31 
s 16
f 43/18/33 44/19/34 45/9/35 46/5/36 
f 44/19/34 47/20/37 17/15/38 45/9/35 
s off
f 18/14/39 46/1/39 11/5/39 13/8/39 
f 46/5/40 45/9/40 12/9/40 11/5/40 
f 45/9/41 17/15/41 19/15/41 12/9/41 
f 17/12/42 18/14/42 13/8/42 19/15/42 
f 10/8/43 5/15/43 42/12/43 40/14/43 
f 5/12/44 20/17/44 41/17/44 42/12/44 
f 20/17/45 1/1/45 39/1/45 41/17/45 
f 1/5/46 10/8/46 40/14/46 39/1/46 
s 2
f 16/12/47 31/13/47 3/3/3 2/2/2 
s 4
f 27/12/48 48/13/49 7/3/7 47/2/50 
s 64
f 1/1/51 20/17/22 14/11/15 2/10/14 
f 29/15/52 15/8/16 14/11/15 8/16/21 
s 16
f 22/1/53 21/14/54 44/19/34 43/18/33 
f 21/14/54 27/12/55 47/20/37 44/19/34 
s 2
f 43/6/56 46/5/57 4/4/4 3/3/3 
s 4
f 6/4/6 17/1/58 47/2/50 7/3/7 
s 8
f 4/4/10 46/1/59 18/14/20 9/7/11 
f 6/13/19 5/15/60 10/8/12 9/7/11 
s off
f 16/12/28 49/12/28 32/13/28 31/13/28 
f 49/12/61 38/12/61 34/13/61 32/13/61 
f 50/15/62 35/15/62 34/13/62 37/13/62 
s 2
f 22/15/47 43/6/56 3/3/3 31/13/47 
s 4
f 29/15/63 8/6/8 7/3/7 48/13/49 
# 38 polygons - 4 triangles

