# 3ds Max Wavefront OBJ Exporter v0.97b - (c)2007 guruware
# File Created: 07.08.2013 15:52:49

mtllib SMD_PlasticTubing.mtl

#
# object Cylinder001
#

v  -4.099454402924 0.263460755348 0.744125604630
v  -4.512840270996 0.502129137516 0.744125604630
v  -3.640610218048 0.502129077911 3.060051918030
v  -3.329929351807 0.263460755348 2.787352085114
v  -4.512840270996 0.024792313576 0.744125604630
v  -3.640610218048 0.024792253971 3.060051918030
v  -1.457328319550 0.533392965794 4.225203514099
v  -1.403728246689 0.294724583626 3.815307617188
v  -1.457328319550 0.056056141853 4.225203514099
v  0.952142238617 0.533393025398 3.660621881485
v  0.722027778625 0.294724613428 3.317205190659
v  0.952142238617 0.056056201458 3.660621881485
v  2.390544414520 0.550750136375 1.646845459938
v  1.991058349609 0.312081813812 1.540550351143
v  2.390544414520 0.073413372040 1.646845340729
v  2.143143177032 0.550750255585 -0.815489172935
v  1.772788524628 0.312081873417 -0.631844878197
v  2.143143177032 0.073413491249 -0.815489172935
v  0.332869529724 0.521303653717 -2.502857923508
v  0.175673961639 0.282635211945 -2.120526313782
v  0.332869529724 0.043966829777 -2.502857923508
v  -2.140755414963 0.521303653717 -2.576813697815
v  -2.006682157516 0.282635211945 -2.185773849487
v  -2.140755414963 0.043966829777 -2.576813697815
v  -4.048602104187 0.986046254635 -1.000608086586
v  -3.689880371094 0.747377872467 -0.795166015625
v  -4.048602104187 0.508709490299 -1.000608086586
v  -4.442667007446 0.986046195030 1.442547202110
v  -4.037543773651 0.747377812862 1.360308289528
v  -4.442666530609 0.508709371090 1.442547202110
v  -3.127140045166 1.002277135849 3.538661241531
v  -2.876920223236 0.763608694077 3.209605216980
v  -3.127140045166 0.524940252304 3.538661241531
v  -0.755701780319 1.002277016640 4.246180534363
v  -0.784718275070 0.763608694077 3.833814620972
v  -0.755701780319 0.524940252304 4.246180534363
v  1.493289470673 1.002277135849 3.213542222977
v  1.199454784393 0.763608694077 2.922768831253
v  1.493289470673 0.524940252304 3.213542222977
v  2.502317905426 1.002277135849 0.953863620758
v  2.089670181274 0.763608813286 0.929167032242
v  2.502317905426 0.524940371513 0.953863620758
v  1.770005226135 1.002277255058 -1.410034179688
v  1.443587303162 0.763608872890 -1.156382441521
v  1.770005226135 0.524940490723 -1.410034179688
v  -0.339770793915 1.002277374268 -2.703540325165
v  -0.417762994766 0.763608932495 -2.297578573227
v  -0.339770793915 0.524940550327 -2.703540325165
v  -2.778665542603 1.097560167313 -2.283913612366
v  -2.569478511810 0.858891725540 -1.927362680435
v  -2.778665542603 0.620223283768 -2.283913612366
v  -4.334806919098 1.559343338013 -0.359663844109
v  -3.942384481430 1.320674896240 -0.229692935944
v  -4.334806919098 1.082006454468 -0.359663844109
v  -4.234951972961 1.464060425758 2.113048315048
v  -3.854287624359 1.225391983986 1.951857924461
v  -4.234951972961 0.986723542213 2.113048315048
v  -2.528717994690 1.475512027740 3.905554294586
v  -2.348962068558 1.236843585968 3.533296823502
v  -2.528717994690 0.998175203800 3.905554294586
v  -0.063928604126 1.475512027740 4.127157211304
v  -0.174400806427 1.236843705177 3.728805780411
v  -0.063928604126 0.998175203800 4.127156734467
v  -3.695703983307 0.024792253971 -4.246180534363
v  -3.695703983307 0.502129018307 -4.246180534363
v  -3.296403884888 0.263460695744 -4.139188766479
v  4.272786140442 0.266323566437 1.731487631798
v  4.512840270996 0.504991829395 2.068031311035
v  4.512840270996 0.027655065060 2.068031311035
v  -4.099454402924 0.263460576534 -1.673035860062
v  -4.512840270996 0.502128958702 -1.673035860062
v  -4.512840270996 0.024792134762 -1.673035860062
v  2.265322685242 0.883992135525 3.481200456619
v  2.154850006104 0.645323872566 3.082849264145
v  2.265322685242 0.406655400991 3.481200218201
# 75 vertices

vn 0.979895532131 0.000000111210 -0.199511408806
vn -0.554661512375 0.824957191944 0.108610399067
vn -0.470717281103 0.782309114933 0.407943278551
vn 0.752126872540 -0.005218235310 -0.658997654915
vn -0.554661393166 -0.824957251549 0.108610436320
vn -0.462672680616 -0.785022199154 0.411915153265
vn -0.084644451737 0.785022139549 0.613657593727
vn 0.128779128194 0.005218402948 -0.991659581661
vn -0.076866783202 -0.782309234142 0.618129193783
vn 0.344514489174 0.782892107964 0.518063485622
vn -0.556264758110 -0.002898712642 -0.831000089645
vn 0.347279876471 -0.784399509430 0.513920307159
vn 0.598773181438 0.784399449825 0.161827534437
vn -0.966492950916 0.002898857463 -0.256676763296
vn 0.601795434952 -0.782892107964 0.157867729664
vn 0.553580522537 0.784801423550 -0.278631210327
vn -0.895595610142 0.004924741108 0.444841772318
vn 0.559943616390 -0.782238125801 -0.273068934679
vn 0.233091890812 0.782238245010 -0.577729582787
vn -0.380881011486 -0.004924802575 0.924610972404
vn 0.239087104797 -0.784801483154 -0.571772694588
vn -0.155318528414 0.760705471039 -0.630240619183
vn 0.294312834740 -0.073809996247 0.952854692936
vn -0.254030704498 -0.799975752831 -0.543605804443
vn -0.485915899277 0.799975752831 -0.352029114962
vn 0.880215346813 0.073809735477 0.468799591064
vn -0.589618861675 -0.760705411434 -0.271434873343
vn -0.610066235065 0.782939076424 0.121760345995
vn 0.980095148087 -0.002710696310 -0.198509737849
vn -0.607466399670 -0.784348666668 0.125625312328
vn -0.377276450396 0.784348607063 0.492402017117
vn 0.604942798615 0.002710869070 -0.796264350414
vn -0.374926418066 -0.782938957214 0.496423900127
vn 0.043606992811 0.783609688282 0.619721233845
vn -0.070191890001 0.000000011359 -0.997533500195
vn 0.043606970459 -0.783609688282 0.619721114635
vn 0.441586673260 0.783609688282 0.436986386776
vn -0.710799574852 0.000000030746 -0.703394591808
vn 0.441586703062 -0.783609747887 0.436986237764
vn 0.620143771172 0.783609688282 0.037114974111
vn -0.998213827610 0.000000067101 -0.059742048383
vn 0.620143711567 -0.783609807491 0.037114910781
vn 0.490554183722 0.783609688282 -0.381198644638
vn -0.789619922638 -0.000000026821 0.613596260548
vn 0.490554213524 -0.783609628677 -0.381198823452
vn 0.129901513457 0.779533743858 -0.612741947174
vn -0.191840961576 -0.015850072727 0.981298029423
vn 0.103131942451 -0.787773251534 -0.607270240784
vn -0.263722270727 0.764204204082 -0.588593602180
vn 0.481624722481 -0.057543285191 0.874486386776
vn -0.369729518890 -0.794977784157 -0.480947405100
vn -0.545469760895 0.804493546486 -0.235059261322
vn 0.955037474632 0.089306689799 0.282714873552
vn -0.632538259029 -0.757121324539 -0.163286864758
vn -0.573155701160 0.778577208519 0.255558252335
vn 0.921441257000 -0.017859926447 -0.388107001781
vn -0.571035742760 -0.787892460823 0.230529099703
vn -0.271295875311 0.784132361412 0.558153271675
vn 0.434563517570 0.001913066255 -0.900639176369
vn -0.269106477499 -0.783137619495 0.560604274273
vn 0.137049674988 0.842653989792 0.520722329617
vn -0.053619973361 0.058137208223 -0.996867597103
vn -0.049112990499 -0.788511812687 0.613055408001
vn 0.258819282055 0.000000042222 -0.965925753117
vn 0.814115583897 0.000000025383 -0.580702841282
vn 0.985423266888 -0.000855262042 0.170118346810
vn -0.549892783165 0.830421626568 -0.089542165399
vn -0.549260675907 -0.830705463886 -0.090780667961
vn 0.372814625502 0.800964653492 0.468470841646
vn -0.427501887083 -0.003139909822 -0.904008984566
vn 0.083006359637 -0.829770803452 0.551896989346
vn 0.951857745647 -0.001106423908 0.306538045406
vn -0.458461761475 0.876707553864 -0.145590618253
vn -0.458411484957 -0.877305150032 -0.142107784748
vn 0.396935224533 0.823885798454 0.404542535543
vn -0.538491070271 -0.082716599107 -0.838561475277
vn 0.158623307943 -0.861023128033 0.483195364475
# 77 vertex normals

vt 0.750000000000 0.000000000000 1.000000000000
vt 1.083333373070 0.000000000000 1.000000000000
vt 1.083333373070 0.050000011921 1.000000000000
vt 0.750000000000 0.050000011921 1.000000000000
vt 0.083333350718 0.000000000000 1.000000000000
vt 0.416666686535 0.000000000000 0.999999940395
vt 0.416666686535 0.050000011921 0.999999940395
vt 0.083333350718 0.050000011921 1.000000000000
vt 1.083333373070 0.099999994040 1.000000000000
vt 0.750000000000 0.099999994040 1.000000000000
vt 0.416666686535 0.099999994040 0.999999940395
vt 0.083333350718 0.099999994040 1.000000000000
vt 1.083333373070 0.150000005960 1.000000000000
vt 0.750000000000 0.150000005960 1.000000000000
vt 0.416666686535 0.150000005960 0.999999940395
vt 0.083333350718 0.150000005960 1.000000000000
vt 1.083333373070 0.199999988079 1.000000000000
vt 0.750000000000 0.199999988079 1.000000000000
vt 0.416666686535 0.199999988079 0.999999940395
vt 0.083333350718 0.199999988079 1.000000000000
vt 1.083333373070 0.250000000000 1.000000000000
vt 0.750000000000 0.250000000000 1.000000000000
vt 0.416666686535 0.250000000000 0.999999940395
vt 0.083333350718 0.250000000000 1.000000000000
vt 1.083333373070 0.300000011921 1.000000000000
vt 0.750000000000 0.300000011921 1.000000000000
vt 0.416666686535 0.300000011921 0.999999940395
vt 0.083333350718 0.300000011921 1.000000000000
vt 1.083333373070 0.349999994040 1.000000000000
vt 0.750000000000 0.349999994040 1.000000000000
vt 0.416666686535 0.349999994040 0.999999940395
vt 0.083333350718 0.349999994040 1.000000000000
vt 1.083333373070 0.400000005960 1.000000000000
vt 0.750000000000 0.400000005960 1.000000000000
vt 0.416666686535 0.400000005960 0.999999940395
vt 0.083333350718 0.400000005960 1.000000000000
vt 1.083333373070 0.449999988079 1.000000000000
vt 0.750000000000 0.449999988079 1.000000000000
vt 0.416666686535 0.449999988079 0.999999940395
vt 0.083333350718 0.449999988079 1.000000000000
vt 1.083333373070 0.500000000000 1.000000000000
vt 0.750000000000 0.500000000000 1.000000000000
vt 0.416666686535 0.500000000000 0.999999940395
vt 0.083333350718 0.500000000000 1.000000000000
vt 1.083333373070 0.550000011921 1.000000000000
vt 0.750000000000 0.550000011921 1.000000000000
vt 0.416666686535 0.550000011921 0.999999940395
vt 0.083333350718 0.550000011921 1.000000000000
vt 1.083333373070 0.600000023842 1.000000000000
vt 0.750000000000 0.600000023842 1.000000000000
vt 0.416666686535 0.600000023842 0.999999940395
vt 0.083333350718 0.600000023842 1.000000000000
vt 1.083333373070 0.649999976158 1.000000000000
vt 0.750000000000 0.649999976158 1.000000000000
vt 0.416666686535 0.649999976158 0.999999940395
vt 0.083333350718 0.649999976158 1.000000000000
vt 1.083333373070 0.699999988079 1.000000000000
vt 0.750000000000 0.699999988079 1.000000000000
vt 0.416666686535 0.699999988079 0.999999940395
vt 0.083333350718 0.699999988079 1.000000000000
vt 1.083333373070 0.750000000000 1.000000000000
vt 0.750000000000 0.750000000000 1.000000000000
vt 0.416666686535 0.750000000000 0.999999940395
vt 0.083333350718 0.750000000000 1.000000000000
vt 1.083333373070 0.800000011921 1.000000000000
vt 0.750000000000 0.800000011921 1.000000000000
vt 0.416666686535 0.800000011921 0.999999940395
vt 0.083333350718 0.800000011921 1.000000000000
vt 1.083333373070 0.850000083447 1.000000000000
vt 0.750000000000 0.850000083447 1.000000000000
vt 0.416666686535 0.850000083447 0.999999940395
vt 0.083333350718 0.850000083447 1.000000000000
vt 1.083333373070 0.899999976158 1.000000000000
vt 0.750000000000 0.899999976158 1.000000000000
vt 0.416666686535 0.899999976158 0.999999940395
vt 0.083333350718 0.899999976158 1.000000000000
vt 1.083333373070 0.949999988079 1.000000000000
vt 0.750000000000 0.949999988079 1.000000000000
vt 0.416666686535 0.949999988079 0.999999940395
vt 0.083333350718 0.949999988079 1.000000000000
vt 1.083333373070 1.000000000000 1.000000000000
vt 0.750000000000 1.000000000000 1.000000000000
vt 0.416666686535 1.000000000000 0.999999940395
vt 0.083333350718 1.000000000000 1.000000000000
vt 0.933012723923 0.250000059605 -0.250000000000
vt 0.066987335682 0.249999940395 -0.250000000000
vt 0.499999970198 1.000000000000 -0.250000000000
vt 0.499999970198 1.000000000000 0.250000000000
vt 0.066987335682 0.249999940395 0.250000000000
vt 0.933012723923 0.250000059605 0.250000000000
# 90 texture coords

g Cylinder001
usemtl wire_008110135
s 1
f 1/1/1 2/2/2 3/3/3 4/4/4 
f 2/5/2 5/6/5 6/7/6 3/8/3 
f 5/6/5 1/1/1 4/4/4 6/7/6 
f 4/4/4 3/3/3 7/9/7 8/10/8 
f 3/8/3 6/7/6 9/11/9 7/12/7 
f 6/7/6 4/4/4 8/10/8 9/11/9 
f 8/10/8 7/9/7 10/13/10 11/14/11 
f 7/12/7 9/11/9 12/15/12 10/16/10 
f 9/11/9 8/10/8 11/14/11 12/15/12 
f 11/14/11 10/13/10 13/17/13 14/18/14 
f 10/16/10 12/15/12 15/19/15 13/20/13 
f 12/15/12 11/14/11 14/18/14 15/19/15 
f 14/18/14 13/17/13 16/21/16 17/22/17 
f 13/20/13 15/19/15 18/23/18 16/24/16 
f 15/19/15 14/18/14 17/22/17 18/23/18 
f 17/22/17 16/21/16 19/25/19 20/26/20 
f 16/24/16 18/23/18 21/27/21 19/28/19 
f 18/23/18 17/22/17 20/26/20 21/27/21 
f 20/26/20 19/25/19 22/29/22 23/30/23 
f 19/28/19 21/27/21 24/31/24 22/32/22 
f 21/27/21 20/26/20 23/30/23 24/31/24 
f 23/30/23 22/29/22 25/33/25 26/34/26 
f 22/32/22 24/31/24 27/35/27 25/36/25 
f 24/31/24 23/30/23 26/34/26 27/35/27 
f 26/34/26 25/33/25 28/37/28 29/38/29 
f 25/36/25 27/35/27 30/39/30 28/40/28 
f 27/35/27 26/34/26 29/38/29 30/39/30 
f 29/38/29 28/37/28 31/41/31 32/42/32 
f 28/40/28 30/39/30 33/43/33 31/44/31 
f 30/39/30 29/38/29 32/42/32 33/43/33 
f 32/42/32 31/41/31 34/45/34 35/46/35 
f 31/44/31 33/43/33 36/47/36 34/48/34 
f 33/43/33 32/42/32 35/46/35 36/47/36 
f 35/46/35 34/45/34 37/49/37 38/50/38 
f 34/48/34 36/47/36 39/51/39 37/52/37 
f 36/47/36 35/46/35 38/50/38 39/51/39 
f 38/50/38 37/49/37 40/53/40 41/54/41 
f 37/52/37 39/51/39 42/55/42 40/56/40 
f 39/51/39 38/50/38 41/54/41 42/55/42 
f 41/54/41 40/53/40 43/57/43 44/58/44 
f 40/56/40 42/55/42 45/59/45 43/60/43 
f 42/55/42 41/54/41 44/58/44 45/59/45 
f 44/58/44 43/57/43 46/61/46 47/62/47 
f 43/60/43 45/59/45 48/63/48 46/64/46 
f 45/59/45 44/58/44 47/62/47 48/63/48 
f 47/62/47 46/61/46 49/65/49 50/66/50 
f 46/64/46 48/63/48 51/67/51 49/68/49 
f 48/63/48 47/62/47 50/66/50 51/67/51 
f 50/66/50 49/65/49 52/69/52 53/70/53 
f 49/68/49 51/67/51 54/71/54 52/72/52 
f 51/67/51 50/66/50 53/70/53 54/71/54 
f 53/70/53 52/69/52 55/73/55 56/74/56 
f 52/72/52 54/71/54 57/75/57 55/76/55 
f 54/71/54 53/70/53 56/74/56 57/75/57 
f 56/74/56 55/73/55 58/77/58 59/78/59 
f 55/76/55 57/75/57 60/79/60 58/80/58 
f 57/75/57 56/74/56 59/78/59 60/79/60 
f 59/78/59 58/77/58 61/81/61 62/82/62 
f 58/80/58 60/79/60 63/83/63 61/84/61 
f 60/79/60 59/78/59 62/82/62 63/83/63 
s 2
f 64/85/64 65/86/64 66/87/64 
f 67/88/65 68/89/65 69/90/65 
s 1
f 2/2/2 1/1/1 70/87/66 71/86/67 
f 1/1/1 5/6/5 72/85/68 70/87/66 
f 5/6/5 2/5/2 71/86/67 72/85/68 
f 62/82/62 61/81/61 73/89/69 74/88/70 
f 61/84/61 63/83/63 75/90/71 73/89/69 
f 63/83/63 62/82/62 74/88/70 75/90/71 
f 71/86/67 70/87/66 66/87/72 65/86/73 
f 70/87/66 72/85/68 64/85/74 66/87/72 
f 72/85/68 71/86/67 65/86/73 64/85/74 
f 74/88/70 73/89/69 68/89/75 67/88/76 
f 73/89/69 75/90/71 69/90/77 68/89/75 
f 75/90/71 74/88/70 67/88/76 69/90/77 
# 72 polygons - 2 triangles

