# 3ds Max Wavefront OBJ Exporter v0.97b - (c)2007 guruware
# File Created: 20.06.2013 14:48:04

mtllib Lighter_Zippo.mtl

#
# object LighterClosed
#

v  -0.787401556969 0.137645602226 -0.203021556139
v  -0.694531500340 0.137645602226 -0.236220538616
v  -0.694531500340 0.018808364868 -0.236220642924
v  -0.787401556969 0.046213805676 -0.203021600842
v  0.000000000000 0.137645483017 -0.236220538616
v  0.393700778484 0.137645483017 -0.236220538616
v  0.393700778484 0.018808364868 -0.236220642924
v  0.000000000000 0.018808364868 -0.236220642924
v  -0.787401556969 1.785491585732 -0.203021392226
v  -0.694531500340 1.785637855530 -0.236220344901
v  -0.694531500340 1.169490337372 -0.236220464110
v  -0.787401556969 1.169490337372 -0.203021496534
v  0.000000000000 1.169490337372 -0.236220464110
v  0.000000000000 1.785824179649 -0.236220344901
v  0.393700778484 1.785782098770 -0.236220344901
v  0.393700748682 1.169490337372 -0.236220464110
v  -0.694531500340 0.018808364868 0.236220330000
v  -0.694531500340 0.137645423412 0.236220419407
v  -0.787401556969 0.137645423412 0.203021496534
v  -0.787401556969 0.046213746071 0.203021436930
v  0.393700778484 0.018808364868 0.236220330000
v  0.393700778484 0.137645542622 0.236220419407
v  0.000000000000 0.137645542622 0.236220419407
v  0.000000000000 0.018808364868 0.236220330000
v  -0.694531500340 1.169490218163 0.236220508814
v  -0.694531500340 1.785637855530 0.236220598221
v  -0.787401556969 1.785491466522 0.203021615744
v  -0.787401556969 1.169490218163 0.203021556139
v  0.000000000000 1.169490218163 0.236220508814
v  0.393700748682 1.169490218163 0.236220508814
v  0.393700808287 1.785782098770 0.236220598221
v  0.000000000000 1.785824298859 0.236220598221
v  -0.694531500340 0.000000000000 -0.118110403419
v  -0.787401556969 0.032692193985 -0.118110373616
v  0.393700778484 0.000000000000 -0.118110403419
v  0.000000000000 0.000000000000 -0.118110403419
v  -0.694531500340 -0.000000059605 -0.000000163913
v  -0.694531500340 -0.000000059605 0.118110090494
v  -0.787401556969 0.032692074776 0.118110120296
v  -0.787401556969 0.032692134380 -0.000000119209
v  0.393700778484 -0.000000059605 -0.000000163913
v  0.393700778484 -0.000000059605 0.118110090494
v  0.000000000000 -0.000000059605 0.118110090494
v  0.000000000000 -0.000000059605 -0.000000163913
v  0.787401556969 0.137645483017 -0.203021556139
v  0.787401556969 0.137645542622 -0.118110306561
v  0.787401556969 0.032692193985 -0.118110373616
v  0.787401556969 0.046213805676 -0.203021600842
v  0.787401556969 1.785491585732 -0.203021407127
v  0.787401556969 1.785567760468 -0.118110105395
v  0.787401556969 1.169490218163 -0.118110239506
v  0.787401556969 1.169490337372 -0.203021496534
v  0.787401556969 0.137645483017 -0.000000059605
v  0.787401556969 0.137645483017 0.118110179901
v  0.787401556969 0.032692074776 0.118110120296
v  0.787401556969 0.032692134380 -0.000000119209
v  0.787401556969 1.169490218163 0.000000014901
v  0.787401556969 1.785641193390 0.000000134110
v  0.787401556969 1.785567760468 0.118110358715
v  0.787401556969 1.169490218163 0.118110269308
v  0.694531500340 1.886441469193 -0.236220330000
v  0.694531500340 1.904518604279 -0.118110090494
v  0.787401556969 1.869154214859 -0.118110097945
v  0.787401556969 1.850376963615 -0.203021392226
v  -0.393700778484 1.921964406967 -0.236220330000
v  -0.393700778484 1.940041542053 -0.118110083044
v  0.000000000000 1.950426816940 -0.118110083044
v  0.000000000000 1.932349562645 -0.236220330000
v  0.787401556969 1.878127455711 0.000000149012
v  0.694531500340 1.922595739365 0.000000149012
v  0.694531500340 1.904518485069 0.118110388517
v  0.787401556969 1.869154095650 0.118110388517
v  -0.393700778484 1.958118677139 0.000000163913
v  -0.393700778484 1.940041542053 0.118110388517
v  0.000000000000 1.950426578522 0.118110388517
v  0.000000000000 1.968503952026 0.000000163913
v  -0.787401556969 1.850376963615 -0.203021377325
v  -0.787401556969 1.785567760468 -0.118110090494
v  -0.787401556969 1.869154214859 -0.118110083044
v  -0.787401556969 0.137645602226 -0.118110306561
v  -0.787401556969 1.169490218163 -0.118110239506
v  -0.787401556969 1.785641193390 0.000000134110
v  -0.787401556969 1.785567760468 0.118110358715
v  -0.787401556969 1.869154095650 0.118110388517
v  -0.787401556969 1.878127455711 0.000000149012
v  -0.787401556969 0.137645542622 -0.000000059605
v  -0.787401556969 0.137645423412 0.118110179901
v  -0.787401556969 1.169490218163 0.118110269308
v  -0.787401556969 1.169490218163 0.000000014901
v  -0.760710179806 1.228611350060 -0.196850374341
v  -0.783309578896 1.224115967751 -0.196850389242
v  -0.783309578896 1.224115967751 0.196850389242
v  -0.760710179806 1.228611230850 0.196850389242
v  -0.802468478680 1.211314439774 -0.196850389242
v  -0.802468478680 1.211314320564 0.196850389242
v  -0.815270006657 1.192155599594 -0.196850389242
v  -0.815270006657 1.192155480385 0.196850389242
v  -0.819765329361 1.169556140900 -0.196850389242
v  -0.819765329361 1.169556140900 0.196850389242
v  -0.815270006657 1.146956801414 -0.196850389242
v  -0.815270006657 1.146956682205 0.196850389242
v  -0.802468478680 1.127797961235 -0.196850389242
v  -0.802468478680 1.127797842026 0.196850389242
v  -0.783309578896 1.114996433258 -0.196850389242
v  -0.783309578896 1.114996314049 0.196850359440
v  -0.760710179806 1.110501050949 -0.196850389242
v  -0.760710179806 1.110501050949 0.196850359440
v  -0.760710179806 1.169556140900 -0.196850389242
v  -0.760710179806 1.146956801414 -0.196850389242
v  -0.760710179806 1.169556140900 0.196850389242
v  -0.760710179806 1.192155480385 0.196850389242
v  -0.760710179806 1.146956682205 0.196850389242
v  -0.760710179806 1.211314320564 0.196850389242
v  -0.760710179806 1.127797842026 0.196850389242
v  -0.760710179806 1.211314439774 -0.196850389242
v  -0.760710179806 1.192155599594 -0.196850389242
v  -0.760710179806 1.127797961235 -0.196850389242
v  -0.393700778484 0.137645483017 -0.236220538616
v  -0.393700778484 1.169490337372 -0.236220464110
v  0.694531440735 1.169490337372 -0.236220464110
v  0.694531500340 0.137645483017 -0.236220538616
v  -0.393700778484 1.785782098770 -0.236220344901
v  0.694531500340 1.785637855530 -0.236220344901
v  0.393700778484 1.921964406967 -0.236220330000
v  -0.393700778484 0.137645542622 0.236220419407
v  -0.393700778484 0.018808364868 0.236220330000
v  0.694531500340 0.018808364868 0.236220330000
v  0.694531500340 0.137645542622 0.236220419407
v  -0.393700748682 1.785782098770 0.236220598221
v  -0.393700778484 1.169490218163 0.236220508814
v  0.694531440735 1.169490218163 0.236220508814
v  0.694531500340 1.785637855530 0.236220598221
v  -0.393700778484 0.000000000000 -0.118110403419
v  -0.393700778484 0.018808364868 -0.236220642924
v  0.694531500340 0.018808364868 -0.236220642924
v  0.694531500340 0.000000000000 -0.118110403419
v  -0.393700778484 -0.000000059605 0.118110090494
v  -0.393700778484 -0.000000059605 -0.000000163913
v  0.694531500340 -0.000000059605 -0.000000163913
v  0.694531500340 -0.000000059605 0.118110090494
v  0.393700778484 1.940041542053 -0.118110083044
v  -0.694531500340 1.886441469193 -0.236220315099
v  -0.694531500340 1.904518604279 -0.118110075593
v  0.393700778484 1.940041542053 0.118110388517
v  0.393700778484 1.958118677139 0.000000163913
v  -0.694531500340 1.922595739365 0.000000149012
v  -0.694531500340 1.904518485069 0.118110388517
v  0.787401556969 1.169490218163 0.203021556139
v  0.787401556969 0.137645542622 0.203021496534
v  0.787401556969 0.046213746071 0.203021436930
v  0.787401556969 1.850376605988 0.203021645546
v  0.787401556969 1.785491466522 0.203021615744
v  0.393700808287 1.921964168549 0.236220628023
v  0.694531500340 1.886441230774 0.236220628023
v  -0.393700748682 1.921964168549 0.236220628023
v  0.000000000000 1.932349443436 0.236220628023
v  -0.787401556969 1.850376605988 0.203021645546
v  -0.694531500340 1.886441230774 0.236220628023
# 158 vertices

vn -0.817501127720 0.000000205534 -0.575926959515
vn -0.170818686485 0.000000419745 -0.985302507877
vn -0.198641583323 -0.635453522205 -0.746150374413
vn -0.744656860828 -0.435199499130 -0.506050944328
vn 0.000000000000 0.000000430035 -1.000000000000
vn 0.000000000000 -0.649128854275 -0.760678470135
vn 0.000000000000 -0.649128794670 -0.760678529739
vn -0.817500948906 0.000000103591 -0.575927257538
vn -0.170818507671 0.000000189711 -0.985302507877
vn -0.170818567276 0.000000131015 -0.985302507877
vn -0.817501068115 0.000000071247 -0.575927138329
vn -0.000000000000 0.000000131187 -1.000000000000
vn 0.000000000000 0.000000182105 -1.000000000000
vn 0.000000001187 0.000000182334 -1.000000000000
vn 0.000000000139 0.000000131400 -1.000000000000
vn -0.198641091585 -0.635454118252 0.746149957180
vn -0.170818358660 -0.000000482003 0.985302507877
vn -0.817500889301 -0.000000264455 0.575927376747
vn -0.744656503201 -0.435199975967 0.506051063538
vn 0.000000000000 -0.649129390717 0.760677993298
vn 0.000000000000 -0.000000495771 1.000000000000
vn -0.170818522573 -0.000000107448 0.985302507877
vn -0.170818641782 -0.000000160526 0.985302507877
vn -0.817501127720 -0.000000092422 0.575927019119
vn -0.817500948906 -0.000000054443 0.575927197933
vn 0.000000000000 -0.000000119597 1.000000000000
vn 0.000000000000 -0.000000162921 1.000000000000
vn -0.166584849358 -0.983002901077 -0.077167510986
vn -0.802218735218 -0.595106065273 -0.047894470394
vn 0.000000000000 -0.996884346008 -0.078877240419
vn 0.000000000000 -0.996884346008 -0.078877232969
vn -0.168430209160 -0.985713601112 -0.000000227914
vn -0.166584506631 -0.983002960682 0.077167429030
vn -0.802218437195 -0.595106422901 0.047894407064
vn -0.816102981567 -0.577906548977 -0.000000239974
vn 0.000000000000 -1.000000000000 -0.000000162921
vn 0.000000000000 -0.996884346008 0.078877158463
vn 0.817501127720 0.000000158583 -0.575926959515
vn 1.000000000000 0.000000000000 -0.000000000000
vn 0.802218735218 -0.595106065273 -0.047894459218
vn 0.744656801224 -0.435199469328 -0.506051003933
vn 0.817501008511 0.000000073433 -0.575927197933
vn 0.817501008511 0.000000071608 -0.575927197933
vn 0.802218437195 -0.595106482506 0.047894328833
vn 0.816102921963 -0.577906548977 -0.000000158662
vn 0.247502505779 0.616676151752 -0.747297108173
vn 0.245709359646 0.959666490555 -0.136627674103
vn 0.815523684025 0.573854029179 -0.074917145073
vn 0.763468503952 0.384798586369 -0.518696367741
vn -0.047816999257 0.660463750362 -0.749333798885
vn -0.071073383093 0.985989332199 -0.150909021497
vn 0.000000000000 0.988489151001 -0.151291623712
vn 0.000000000160 0.657632768154 -0.753338634968
vn 0.824412822723 0.565988957882 0.000000307717
vn 0.274197071791 0.961673498154 0.000000391013
vn 0.245709583163 0.959666371346 0.136628493667
vn 0.815523862839 0.573853731155 0.074917860329
vn -0.071580655873 0.997434794903 0.000000415770
vn -0.071073383093 0.985989272594 0.150909841061
vn -0.000000030248 0.988489091396 0.151292219758
vn 0.000000000150 1.000000000000 0.000000413159
vn -0.763468503952 0.384798556566 -0.518696308136
vn -1.000000000000 0.000000000000 -0.000000000000
vn -0.815523743629 0.573854029179 -0.074917137623
vn -0.815523922443 0.573853671551 0.074917845428
vn -0.824412822723 0.565988957882 0.000000295464
vn -0.195091217756 0.980785071850 0.000000162553
vn -0.382683217525 0.923879623413 0.000000181412
vn -0.382683128119 0.923879683018 0.000000186959
vn -0.195090010762 0.980785369873 0.000000234034
vn -0.707106530666 0.707107067108 0.000000148087
vn -0.707106649876 0.707106888294 0.000000137836
vn -0.923879504204 0.382683545351 0.000000062347
vn -0.923879384995 0.382683843374 0.000000082989
vn -1.000000000000 0.000000058033 0.000000000000
vn -1.000000000000 0.000000067706 0.000000000000
vn -0.923879504204 -0.382683455944 -0.000000062347
vn -0.923879504204 -0.382683485746 -0.000000062347
vn -0.707106709480 -0.707106888294 -0.000000115202
vn -0.707106769085 -0.707106769085 -0.000000115202
vn -0.382683157921 -0.923879623413 -0.000000150519
vn -0.382683247328 -0.923879623413 -0.000000150519
vn -0.195090636611 -0.980785191059 -0.000000159790
vn 0.000000000000 0.000000162921 -1.000000000000
vn 0.000000000000 -0.000000661783 1.000000000000
vn -0.000000115137 -0.000001123673 1.000000000000
vn -0.000000088737 -0.000002334291 1.000000000000
vn -0.000000342725 -0.000001885910 1.000000000000
vn -0.000000002511 0.000000134247 -1.000000000000
vn 0.170818462968 0.000000126766 -0.985302507877
vn 0.170818716288 0.000000386879 -0.985302448273
vn -0.000000018593 0.000000183108 -1.000000000000
vn 0.170818477869 0.000000165295 -0.985302507877
vn 0.047816991806 0.660463750362 -0.749333798885
vn 0.198641061783 -0.635454118252 0.746149957180
vn 0.170818373561 -0.000000470282 0.985302507877
vn -0.000000000000 -0.000000119597 1.000000000000
vn 0.170818418264 -0.000000103350 0.985302507877
vn 0.170818641782 -0.000000168781 0.985302507877
vn 0.198641598225 -0.635453462601 -0.746150434017
vn 0.166584819555 -0.983002901077 -0.077167510986
vn 0.168430283666 -0.985713541508 -0.000000160593
vn 0.166584581137 -0.983002901077 0.077167361975
vn 0.071073383093 0.985989332199 -0.150909021497
vn -0.247502520680 0.616676211357 -0.747297048569
vn -0.245709359646 0.959666490555 -0.136627674103
vn 0.071073412895 0.985989272594 0.150909826159
vn 0.071580663323 0.997434794903 0.000000410946
vn -0.274197101593 0.961673498154 0.000000386697
vn -0.245709568262 0.959666371346 0.136628508568
vn 0.817500948906 -0.000000048857 0.575927257538
vn 0.817500889301 -0.000000248286 0.575927376747
vn 0.744656443596 -0.435200005770 0.506051063538
vn 0.763468921185 0.384797483683 0.518696546555
vn 0.817501068115 -0.000000101384 0.575927019119
vn 0.047817029059 0.660463273525 0.749334275723
vn 0.247502788901 0.616675734520 0.747297406197
vn -0.047816976905 0.660463333130 0.749334216118
vn -0.000000041622 0.657632589340 0.753338873386
vn -0.763468861580 0.384797483683 0.518696606159
vn -0.247502774000 0.616675674915 0.747297465801
# 121 vertex normals

vt 1.000000000000 0.250000000000 0.000000000000
vt 0.875000000000 0.250000000000 0.000000000000
vt 0.875000000000 0.000000000000 0.000000000000
vt 1.000000000000 0.000000000000 0.000000000000
vt 0.500000000000 0.250000000000 0.000000000000
vt 0.250000000000 0.250000000000 0.000000000000
vt 0.250000000000 0.000000000000 0.000000000000
vt 0.500000000000 0.000000000000 0.000000000000
vt 1.000000000000 0.750000000000 0.000000000000
vt 0.875000000000 0.750000000000 0.000000000000
vt 0.875000000000 0.500000000000 0.000000000000
vt 1.000000000000 0.500000000000 0.000000000000
vt 0.500000000000 0.500000000000 0.000000000000
vt 0.500000000000 0.750000000000 0.000000000000
vt 0.250000000000 0.750000000000 0.000000000000
vt 0.250000000000 0.500000000000 0.000000000000
vt 0.125000000000 0.000000000000 0.000000000000
vt 0.125000000000 0.250000000000 0.000000000000
vt 0.000000000000 0.250000000000 0.000000000000
vt 0.000000000000 0.000000000000 0.000000000000
vt 0.750000000000 0.000000000000 0.000000000000
vt 0.750000000000 0.250000000000 0.000000000000
vt 0.125000000000 0.500000000000 0.000000000000
vt 0.125000000000 0.750000000000 0.000000000000
vt 0.000000000000 0.750000000000 0.000000000000
vt 0.000000000000 0.500000000000 0.000000000000
vt 0.750000000000 0.500000000000 0.000000000000
vt 0.750000000000 0.750000000000 0.000000000000
vt 0.000000037945 0.000000000000 1.000000000000
vt 0.062500022352 0.000000000000 1.000000000000
vt 0.062500022352 0.999999940395 1.000000000000
vt 0.000000037945 0.999999940395 1.000000000000
vt 0.125000014901 0.000000000000 1.000000000000
vt 0.125000014901 0.999999940395 1.000000000000
vt 0.187500000000 0.000000000000 1.000000000000
vt 0.187500000000 0.999999940395 1.000000000000
vt 0.249999985099 0.000000000000 1.000000000000
vt 0.249999985099 0.999999940395 1.000000000000
vt 0.312499970198 0.000000000000 1.000000000000
vt 0.312499970198 0.999999940395 1.000000000000
vt 0.375000000000 0.000000000000 1.000000000000
vt 0.375000000000 0.999999940395 1.000000000000
vt 0.437499970198 0.000000000000 1.000000000000
vt 0.437499970198 0.999999940395 1.000000000000
vt 0.500000000000 0.000000000000 1.000000000000
vt 0.500000000000 0.999999940395 1.000000000000
vt 0.691341638565 0.038060188293 -0.250000000000
vt 0.499999940395 0.000000000000 -0.250000000000
vt 0.499999970198 0.499999970198 -0.250000000000
vt 0.691341519356 0.499999970198 -0.250000000000
vt 0.308658272028 0.038060247898 0.249999970198
vt 0.499999940395 0.000000000000 0.249999970198
vt 0.499999940395 0.499999970198 0.249999970198
vt 0.308658272028 0.499999940395 0.249999970198
vt 0.691341638565 0.038060188293 0.249999970198
vt 0.691341519356 0.499999970198 0.249999970198
vt 0.146446615458 0.499999940395 0.249999970198
vt 0.000000000000 0.499999970198 0.249999970198
vt 0.038060247898 0.308658242226 0.249999970198
vt 0.146446645260 0.146446585655 0.249999970198
vt 0.853553295135 0.146446555853 0.249999970198
vt 0.853553295135 0.500000000000 0.249999970198
vt 0.961939752102 0.308658242226 0.249999970198
vt 1.000000000000 0.500000000000 0.249999970198
vt 0.146446645260 0.146446585655 -0.250000000000
vt 0.146446615458 0.499999940395 -0.250000000000
vt 0.308658272028 0.499999940395 -0.250000000000
vt 0.308658272028 0.038060247898 -0.250000000000
vt 0.038060247898 0.308658242226 -0.250000000000
vt 0.000000000000 0.499999970198 -0.250000000000
vt 0.853553295135 0.500000000000 -0.250000000000
vt 0.853553295135 0.146446555853 -0.250000000000
vt 1.000000000000 0.500000000000 -0.250000000000
vt 0.961939752102 0.308658242226 -0.250000000000
vt 0.750000000000 1.000000000000 0.000000000000
vt 0.500000000000 1.000000000000 0.000000000000
vt 0.125000000000 1.000000000000 0.000000000000
vt 0.250000000000 1.000000000000 0.000000000000
vt 0.000000000000 1.000000000000 0.000000000000
vt 1.000000000000 1.000000000000 0.000000000000
vt 0.875000000000 1.000000000000 0.000000000000
# 81 texture coords

g LighterClosed
usemtl wire_115115115
s 1
f 1/1/1 2/2/2 3/3/3 4/4/4 
f 5/5/5 6/6/5 7/7/6 8/8/7 
f 9/9/8 10/10/9 11/11/10 12/12/11 
f 13/13/12 14/14/13 15/15/14 16/16/15 
f 17/17/16 18/18/17 19/19/18 20/20/19 
f 21/21/20 22/22/21 23/5/21 24/8/20 
f 25/23/22 26/24/23 27/25/24 28/26/25 
f 29/13/26 30/27/26 31/28/27 32/14/27 
f 3/17/3 33/18/28 34/19/29 4/20/4 
f 7/21/6 35/22/30 36/5/31 8/8/7 
f 37/23/32 38/24/33 39/25/34 40/26/35 
f 41/27/36 42/28/37 43/14/37 44/13/36 
f 45/7/38 46/6/39 47/19/40 48/20/41 
f 49/21/42 50/22/39 51/5/39 52/8/43 
f 53/16/39 54/15/39 55/25/44 56/26/45 
f 57/13/39 58/27/39 59/28/39 60/14/39 
f 61/17/46 62/18/47 63/19/48 64/20/49 
f 65/21/50 66/22/51 67/5/52 68/8/53 
f 69/26/54 70/23/55 71/24/56 72/25/57 
f 73/27/58 74/28/59 75/14/60 76/13/61 
f 77/20/62 9/7/8 78/6/63 79/19/64 
f 1/21/1 80/22/63 81/5/63 12/8/11 
f 82/16/63 83/15/63 84/25/65 85/26/66 
f 86/27/63 87/28/63 88/14/63 89/13/63 
f 90/29/67 91/30/68 92/31/69 93/32/70 
f 91/30/68 94/33/71 95/34/72 92/31/69 
f 94/33/71 96/35/73 97/36/74 95/34/72 
f 96/35/73 98/37/75 99/38/76 97/36/74 
f 98/37/75 100/39/77 101/40/78 99/38/76 
f 100/39/77 102/41/79 103/42/80 101/40/78 
f 102/41/79 104/43/81 105/44/82 103/42/80 
f 104/43/81 106/45/83 107/46/83 105/44/82 
s 2
f 100/47/84 98/48/84 108/49/84 109/50/84 
f 97/51/27 99/52/27 110/53/27 111/54/27 
f 101/55/27 112/56/27 110/53/27 99/52/27 
f 113/57/27 93/58/27 92/59/27 95/60/27 
f 95/60/27 97/51/27 111/54/27 113/57/27 
f 103/61/85 114/62/86 112/56/27 101/55/27 
f 105/63/87 107/64/88 114/62/86 103/61/85 
f 94/65/84 115/66/84 116/67/84 96/68/84 
f 108/49/84 98/48/84 96/68/84 116/67/84 
f 91/69/84 90/70/84 115/66/84 94/65/84 
f 109/50/84 117/71/84 102/72/84 100/47/84 
f 117/71/84 106/73/84 104/74/84 102/72/84 
s 1
f 13/13/12 5/5/5 118/22/5 119/27/89 
f 120/23/90 121/18/91 6/6/5 16/16/15 
f 65/75/50 68/76/53 14/14/13 122/28/92 
f 61/77/46 123/24/93 15/15/14 124/78/94 
f 24/8/20 23/5/21 125/6/21 126/7/20 
f 127/3/95 128/2/96 22/22/21 21/21/20 
f 29/13/26 32/14/27 129/15/27 130/16/97 
f 30/27/26 131/11/98 132/10/99 31/28/27 
f 8/8/7 36/5/31 133/6/30 134/7/7 
f 135/3/100 136/2/101 35/22/30 7/21/6 
f 44/13/36 43/14/37 137/15/37 138/16/36 
f 139/11/102 140/10/103 42/28/37 41/27/36 
f 68/8/53 67/5/52 141/6/104 124/7/94 
f 65/21/50 142/3/105 143/2/106 66/22/51 
f 76/13/61 75/14/60 144/15/107 145/16/108 
f 146/11/109 147/10/110 74/28/59 73/27/58 
f 12/12/11 11/11/10 2/2/2 1/1/1 
f 13/13/12 16/16/15 6/6/5 5/5/5 
f 130/16/97 25/23/22 18/18/17 125/6/21 
f 30/27/26 29/13/26 23/5/21 22/22/21 
f 52/8/43 51/5/39 46/6/39 45/7/38 
f 57/13/39 60/14/39 54/15/39 53/16/39 
f 4/4/4 34/1/29 80/22/63 1/21/1 
f 40/12/35 39/9/34 87/28/63 86/27/63 
f 8/8/7 134/21/7 118/22/5 5/5/5 
f 48/20/41 135/17/100 121/18/91 45/19/38 
f 29/13/26 130/16/97 125/6/21 23/5/21 
f 148/12/111 131/11/98 128/2/96 149/1/112 
f 138/16/36 37/23/32 33/18/28 133/6/30 
f 41/27/36 44/13/36 36/5/31 35/22/30 
f 126/78/20 17/77/16 38/24/33 137/15/37 
f 21/75/20 24/76/20 43/14/37 42/28/37 
f 53/16/39 56/26/45 47/19/40 46/6/39 
f 63/1/48 69/12/54 58/27/39 50/22/39 
f 149/78/112 150/79/113 55/25/44 54/15/39 
f 151/80/114 152/75/115 59/28/39 72/9/57 
f 141/6/104 145/16/108 70/23/55 62/18/47 
f 73/27/58 76/13/61 67/5/52 66/22/51 
f 153/78/116 154/77/117 71/24/56 144/15/107 
f 155/75/118 156/76/119 75/14/60 74/28/59 
f 89/13/63 82/16/63 78/6/63 81/5/63 
f 86/27/63 89/13/63 81/5/63 80/22/63 
f 88/14/63 28/76/25 27/78/24 83/15/63 
f 19/75/18 28/76/25 88/14/63 87/28/63 
f 44/13/36 138/16/36 133/6/30 36/5/31 
f 56/12/45 139/11/102 136/2/101 47/1/40 
f 24/76/20 126/78/20 137/15/37 43/14/37 
f 150/80/113 127/81/95 140/10/103 55/9/44 
f 76/13/61 145/16/108 141/6/104 67/5/52 
f 85/12/66 146/11/109 143/2/106 79/1/64 
f 156/76/119 153/78/116 144/15/107 75/14/60 
f 84/9/65 157/80/120 158/81/121 147/10/110 
f 57/13/39 53/16/39 46/6/39 51/5/39 
f 148/76/111 149/78/112 54/15/39 60/14/39 
f 40/12/35 86/27/63 80/22/63 34/1/29 
f 20/80/19 19/75/18 87/28/63 39/9/34 
f 118/22/5 134/21/7 3/3/3 2/2/2 
f 142/81/105 65/75/50 122/28/92 10/10/9 
f 126/7/20 125/6/21 18/18/17 17/17/16 
f 130/16/97 129/15/27 26/24/23 25/23/22 
f 134/7/7 133/6/30 33/18/28 3/17/3 
f 138/16/36 137/15/37 38/24/33 37/23/32 
f 124/7/94 141/6/104 62/18/47 61/17/46 
f 70/23/55 145/16/108 144/15/107 71/24/56 
f 52/26/43 45/19/38 121/18/91 120/23/90 
f 64/79/49 49/25/42 123/24/93 61/77/46 
f 150/4/113 149/1/112 128/2/96 127/3/95 
f 131/11/98 148/12/111 152/9/115 132/10/99 
f 48/4/41 47/1/40 136/2/101 135/3/100 
f 56/12/45 55/9/44 140/10/103 139/11/102 
f 142/3/105 77/4/62 79/1/64 143/2/106 
f 85/12/66 84/9/65 147/10/110 146/11/109 
f 119/27/89 118/22/5 2/2/2 11/11/10 
f 28/26/25 19/19/18 18/18/17 25/23/22 
f 7/7/6 6/6/5 121/18/91 135/17/100 
f 30/27/26 22/22/21 128/2/96 131/11/98 
f 40/26/35 34/19/29 33/18/28 37/23/32 
f 20/79/19 39/25/34 38/24/33 17/77/16 
f 69/26/54 63/19/48 62/18/47 70/23/55 
f 154/77/117 151/79/114 72/25/57 71/24/56 
f 41/27/36 35/22/30 136/2/101 139/11/102 
f 21/75/20 42/28/37 140/10/103 127/81/95 
f 146/11/109 73/27/58 66/22/51 143/2/106 
f 155/75/118 74/28/59 147/10/110 158/81/121 
f 77/80/62 142/81/105 10/10/9 9/9/8 
f 14/14/13 68/76/53 124/78/94 15/15/14 
f 26/24/23 158/77/121 157/79/120 27/25/24 
f 153/75/116 156/76/119 32/14/27 31/28/27 
f 64/4/49 63/1/48 50/22/39 49/21/42 
f 58/27/39 69/12/54 72/9/57 59/28/39 
f 9/7/8 12/8/11 81/5/63 78/6/63 
f 89/13/63 88/14/63 83/15/63 82/16/63 
f 13/13/12 119/27/89 122/28/92 14/14/13 
f 123/24/93 120/23/90 16/16/15 15/15/14 
f 32/14/27 156/76/119 155/78/118 129/15/27 
f 154/81/117 153/75/116 31/28/27 132/10/99 
f 57/13/39 51/5/39 50/22/39 58/27/39 
f 152/75/115 148/76/111 60/14/39 59/28/39 
f 82/16/63 85/26/66 79/19/64 78/6/63 
f 157/79/120 84/25/65 83/15/63 27/78/24 
f 119/27/89 11/11/10 10/10/9 122/28/92 
f 129/15/27 155/78/118 158/77/121 26/24/23 
f 49/25/42 52/26/43 120/23/90 123/24/93 
f 151/80/114 154/81/117 132/10/99 152/9/115 
# 148 polygons

