# 3ds Max Wavefront OBJ Exporter v0.97b - (c)2007 guruware
# File Created: 17.06.2013 14:36:31
# UVs by headus UVLayout v2.08.00 2012/05/02 06:40:44

mtllib BIA_PlasticCutlery.mtl

#
# object Plane002
#

v  -1.203205943108 0.402795344591 -2.599735975266
v  -1.245478749275 0.402795344591 -2.599735975266
v  -1.333462953568 0.221747040749 -1.390017986298
v  -1.183436393738 0.221747040749 -1.390017986298
v  -1.364547848701 0.402795344591 -2.599735975266
v  -1.400019407272 0.402795344591 -2.599735975266
v  -1.550185918808 0.221747040749 -1.390017986298
v  -1.362701058388 0.221747040749 -1.390017986298
v  -1.164892435074 0.210997998714 -0.957510054111
v  -1.164892435074 0.199821084738 -1.153968095779
v  -1.247162818909 0.199821084738 -1.153968095779
v  -1.480116605759 0.210997998714 -0.957510054111
v  -1.342403054237 0.285748749971 -0.773809850216
v  -1.164892435074 0.285748749971 -0.773809850216
v  -1.164892435074 0.199821084738 2.530758619308
v  -1.164892435074 0.337405234575 1.660356998444
v  -1.364421725273 0.337405234575 1.660356998444
v  -1.291998267174 0.199821084738 2.499449253082
v  -1.164892435074 0.423392981291 0.969653308392
v  -1.334414958954 0.423392981291 0.969653308392
v  -1.164892435074 0.484139055014 0.188024461269
v  -1.307268381119 0.484139055014 0.188024461269
v  -1.164892435074 0.478296905756 -0.363199055195
v  -1.287356615067 0.478296905756 -0.363199055195
v  -1.267444849014 0.404645115137 -0.618285357952
v  -1.164892435074 0.404645115137 -0.618285357952
v  -1.082622051239 0.199821084738 -1.153968095779
v  -0.967083811760 0.221747040749 -1.390017986298
v  -0.996321976185 0.221747040749 -1.390017986298
v  -1.146348476410 0.221747040749 -1.390017986298
v  -1.084306240082 0.402795344591 -2.599735975266
v  -1.126578927040 0.402795344591 -2.599735975266
v  -0.779599010944 0.221747040749 -1.390017986298
v  -0.929765462875 0.402795344591 -2.599735975266
v  -0.965237021446 0.402795344591 -2.599735975266
v  -0.849668264389 0.210997998714 -0.957510054111
v  -0.775889158249 0.199821084738 -1.153968095779
v  -1.553895711899 0.199821084738 -1.153968095779
v  -0.987381875515 0.285748749971 -0.773809850216
v  -1.037786602974 0.199821084738 2.499449253082
v  -0.965363144875 0.337405234575 1.660356998444
v  -0.995369911194 0.423392981291 0.969653308392
v  -1.022516489029 0.484139055014 0.188024461269
v  -1.042428255081 0.478296905756 -0.363199055195
v  -1.062340021133 0.404645115137 -0.618285357952
# 45 vertices

vn 0.000000000000 0.988985419273 0.148013129830
vn 0.000000000000 0.988985419273 0.148013114929
vn 0.000000000000 0.993880331516 0.110461935401
vn 0.000000000000 0.993830680847 0.110907964408
vn 0.000000000000 0.992889821529 0.119036927819
vn 0.000000000000 0.993817746639 0.111023619771
vn 0.000000000000 0.975537598133 -0.219832718372
vn 0.000000000000 0.999839901924 0.017894238234
vn 0.000000000000 0.999839901924 0.017894214019
vn 0.000000000000 0.986222147942 -0.165426403284
vn 0.000000000000 0.886487722397 -0.462752133608
vn 0.000000000000 0.868026971817 -0.496517032385
vn 0.002279531909 0.987127304077 0.159920185804
vn 0.000908409362 0.989988863468 0.141142681241
vn -0.001860054559 0.990143477917 0.140044406056
vn -0.040665764362 0.985439717770 0.165090367198
vn 0.000000000000 0.994933187962 0.100538402796
vn 0.000000000000 0.994875609875 0.101106517017
vn 0.000000000000 0.999439537525 0.033475380391
vn 0.000000000000 0.999405801296 0.034468162805
vn 0.000000000000 0.989383757114 -0.145326659083
vn 0.000000000000 0.990079224110 -0.140510424972
vn 0.000000000000 0.885996222496 -0.463692486286
vn 0.000000000000 0.892968773842 -0.450118601322
vn 0.000000000000 0.999839901924 0.017894210294
vn 0.000000000000 0.993817746639 0.111023642123
vn 0.000000000000 0.993880331516 0.110461927950
vn 0.000000000000 0.993830680847 0.110907949507
vn 0.000000000000 0.992889821529 0.119036935270
vn 0.000000000000 0.986222147942 -0.165426388383
vn 0.000000000000 0.999630749226 0.027173092589
vn 0.000000000000 0.999630749226 0.027173090726
vn 0.000000000000 0.886487722397 -0.462752103806
vn 0.033698838204 0.987064480782 0.156742140651
vn 0.000000000000 0.989804327488 0.142433926463
vn 0.000000000000 0.994875609875 0.101106524467
vn 0.000000000000 0.999405801296 0.034468151629
vn 0.000000000000 0.990079224110 -0.140510454774
# 38 vertex normals

# 123 texture coords
vt 0.801558 1.467219
vt 0.801544 1.547033
vt 0.768179 1.547002
vt 0.801569 1.386795
vt 0.801551 0.376268
vt 0.801573 0.658462
vt 0.801625 0.976309
vt 0.801595 1.199797
vt 0.801580 1.307432
vt 0.834909 1.547011
vt 0.133920 0.348617
vt 0.131269 0.658841
vt 0.131086 0.969062
vt 0.128391 1.279284
vt 0.108642 1.620184
vt 0.112300 1.917424
vt 0.459239 1.268649
vt 0.459313 0.989330
vt 0.459165 1.547564
vt 0.459388 0.723471
vt 0.459409 0.653480
vt 0.459427 0.593323
vt 0.396398 0.565791
vt 0.355151 0.514602
vt 0.338077 0.462170
vt 0.334785 0.402083
vt 0.344896 0.343004
vt 0.366828 0.266911
vt 0.407997 0.193867
vt 0.459532 0.165640
vt 0.511054 0.193889
vt 0.552190 0.266951
vt 0.574085 0.343055
vt 0.584166 0.402139
vt 0.580843 0.462226
vt 0.563743 0.514652
vt 0.522470 0.565823
vt 0.459510 0.263874
vt 0.459446 0.521253
vt 0.459460 0.465690
vt 0.459475 0.405873
vt 0.459494 0.329495
vt 0.064889 1.279296
vt 0.060856 0.969268
vt 0.049495 0.659131
vt 0.201316 0.968857
vt 0.191892 1.279270
vt 0.000956 1.619953
vt 0.046445 0.348823
vt 0.213043 0.658557
vt 0.208993 1.620395
vt 0.019315 1.917141
vt 0.078150 0.040942
vt 0.133462 0.024070
vt 0.221395 0.348416
vt 0.201825 1.917704
vt 0.179654 2.231775
vt 0.090984 2.157587
vt 0.188821 0.040733
vt 0.223425 2.213386
vt 0.372064 0.624073
vt 0.302869 0.556090
vt 0.266084 0.487199
vt 0.410903 0.653004
vt 0.252284 0.393532
vt 0.265145 0.299798
vt 0.546773 0.624117
vt 0.507916 0.653031
vt 0.616003 0.556165
vt 0.410563 0.723546
vt 0.312059 0.168920
vt 0.652824 0.487290
vt 0.508213 0.723574
vt 0.409335 0.989323
vt 0.383359 0.084155
vt 0.666671 0.393628
vt 0.509290 0.989351
vt 0.389246 1.268630
vt 0.459557 0.049661
vt 0.653856 0.299886
vt 0.529231 1.268668
vt 0.378734 1.547541
vt 0.535740 0.084188
vt 0.607003 0.168985
vt 0.539595 1.547586
vt 0.459078 1.839674
vt 0.411654 1.826229
vt 0.506509 1.826256
vt 0.751945 1.199793
vt 0.743898 0.976310
vt 0.859351 0.976309
vt 0.851245 1.199802
vt 0.760003 1.307427
vt 0.732844 0.658468
vt 0.870302 0.658455
vt 0.843156 1.307436
vt 0.729607 1.386776
vt 0.720665 0.376274
vt 0.882437 0.376270
vt 0.873530 1.386794
vt 0.673766 1.467126
vt 0.749990 0.031532
vt 0.801561 0.018995
vt 0.853132 0.031532
vt 0.929349 1.467162
vt 0.643816 1.546790
vt 0.959271 1.546841
vt 0.645131 1.642735
vt 0.957922 1.642786
vt 0.733094 1.643055
vt 0.721165 1.643105
vt 0.716494 2.139125
vt 0.702113 2.139012
vt 0.900781 2.139044
vt 0.886399 2.139153
vt 0.881887 1.643131
vt 0.869959 1.643077
vt 0.809093 1.643191
vt 0.793959 1.643187
vt 0.783949 2.139133
vt 0.766811 2.139065
vt 0.836118 2.139077
vt 0.818979 2.139141
# 12 texture coords

g Plane002
usemtl wire_115115115
s 1
f 1/120/1 2/121/2 3/110/3 4/119/4
f 5/112/2 6/113/2 7/108/5 8/111/6
f 9/1/7 10/2/8 11/3/9
f 9/1/7 12/101/10 13/97/11 14/4/12
f 15/103/13 16/5/14 17/98/15 18/102/16
f 16/5/14 19/6/17 20/94/18 17/98/15
f 19/6/17 21/7/19 22/90/20 20/94/18
f 21/7/19 23/8/21 24/89/22 22/90/20
f 14/4/12 13/97/11 25/93/23 26/9/24
f 27/10/25 28/116/26 29/117/27
f 30/118/28 29/117/27 31/122/2 32/123/2
f 28/116/26 33/109/29 34/114/2 35/115/2
f 36/105/30 37/107/31 27/10/25 9/1/7
f 9/1/7 27/10/25 10/2/8
f 11/3/9 38/106/32 12/101/10 9/1/7
f 39/100/33 36/105/30 9/1/7 14/4/12
f 40/104/34 41/99/35 16/5/14 15/103/13
f 16/5/14 41/99/35 42/95/36 19/6/17
f 19/6/17 42/95/36 43/91/37 21/7/19
f 21/7/19 43/91/37 44/92/38 23/8/21
f 45/96/23 39/100/33 14/4/12 26/9/24
f 29/117/27 30/118/28 10/2/8 27/10/25
f 27/10/25 37/107/31 33/109/29 28/116/26
f 3/110/3 11/3/9 10/2/8 4/119/4
f 10/2/8 30/118/28 4/119/4
f 7/108/5 38/106/32 11/3/9 8/111/6
f 11/3/9 3/110/3 8/111/6
f 23/8/21 26/9/24 25/93/23 24/89/22
f 45/96/23 26/9/24 23/8/21 44/92/38
# 24 polygons - 5 triangles

#
# object Plane003
#

v  -0.077403992414 0.341980069876 2.643788576126
v  0.059079855680 0.341980069876 2.685147285461
v  0.059079855680 0.341980069876 1.884655952454
v  -0.156654655933 0.341980069876 1.884655952454
v  0.050266265869 0.341980069876 1.119519233704
v  -0.151449128985 0.341980069876 1.119519233704
v  0.046130388975 0.341980069876 0.354382514954
v  -0.127084672451 0.341980069876 0.354382514954
v  0.037858635187 0.341980069876 -0.410754203796
v  -0.118788123131 0.341980069876 -0.410754203796
v  0.195563703775 0.341980069876 2.643788576126
v  0.274814367294 0.341980069876 1.884655952454
v  0.251981675625 0.341980069876 1.119519233704
v  0.219345450401 0.341980069876 0.354382514954
v  0.194505408406 0.341980069876 -0.410754203796
v  0.238234192133 0.341980069876 -1.251666545868
v  -0.009254336357 0.341980069876 -1.251666545868
v  -0.274833679199 0.341980069876 -1.251666545868
v  0.222514897585 0.341980069876 -1.984779357910
v  0.001704901457 0.341980069876 -1.984779357910
v  -0.227635890245 0.341980069876 -1.984779357910
v  0.278594285250 0.341980069876 -2.713753938675
v  0.170787751675 0.341980069876 -2.759476661682
v  -0.048625648022 0.341980069876 -2.577270507813
# 24 vertices

vn 0.000000000000 1.000000000000 -0.000000000000
# 1 vertex normals

# 15 texture coords

g Plane003
usemtl wire_086086086
s 1
f 46/53/39 47/54/39 48/11/39 49/49/39
f 49/49/39 48/11/39 50/12/39 51/45/39
f 51/45/39 50/12/39 52/13/39 53/44/39
f 53/44/39 52/13/39 54/14/39 55/43/39
f 56/59/39 57/55/39 48/11/39 47/54/39
f 57/55/39 58/50/39 50/12/39 48/11/39
f 58/50/39 59/46/39 52/13/39 50/12/39
f 59/46/39 60/47/39 54/14/39 52/13/39
s off
f 54/14/39 60/47/39 61/51/39 62/15/39
f 55/43/39 54/14/39 62/15/39 63/48/39
f 62/15/39 61/51/39 64/56/39 65/16/39
f 63/48/39 62/15/39 65/16/39 66/52/39
f 65/16/39 64/56/39 67/60/39 68/57/39
f 66/52/39 65/16/39 68/57/39 69/58/39
# 14 polygons

#
# object Plane004
#

v  1.119114875793 0.366621255875 0.999415040016
v  1.291759014130 0.366621255875 0.999415040016
v  1.291759014130 0.409026533365 0.312156438828
v  1.168495416641 0.409026533365 0.312156379223
v  1.464403152466 0.366621255875 0.999415040016
v  1.291759014130 0.342214643955 1.686673641205
v  1.490132570267 0.342214643955 1.686673641205
v  1.174778819084 0.338938117027 2.373932361603
v  1.291759014130 0.338938117027 2.407063007355
v  1.093385457993 0.342214643955 1.686673641205
v  1.291759014130 0.469401836395 -0.340262532234
v  1.171637058258 0.469401836395 -0.340262532234
v  1.411880970001 0.469401836395 -0.340262532234
v  1.415022611618 0.409026533365 0.312156438828
v  1.408739209175 0.338938117027 2.373932361603
v  1.291759014130 0.394193053246 -0.495889902115
v  1.408739209175 0.394193053246 -0.495889902115
v  1.291759014130 0.315476953983 -0.623536229134
v  1.495176792145 0.394193053246 -0.568596243858
v  1.446579694748 0.310615211725 -0.691659927368
v  1.655219912529 0.394193053246 -0.735681176186
v  1.545304298401 0.304338365793 -0.820248246193
v  1.738069653511 0.394193053246 -0.899730801582
v  1.586309552193 0.293286710978 -0.950006723404
v  1.767261505127 0.394193053246 -1.122014403343
v  1.593930006027 0.286039948463 -1.099196791649
v  1.738069653511 0.394193053246 -1.344297766685
v  1.570084810257 0.282238543034 -1.246372103691
v  1.634993553162 0.394193053246 -1.662942528725
v  1.518072247505 0.286206901073 -1.435590863228
v  1.470114111900 0.394193053246 -1.871117949486
v  1.419530987740 0.290512919426 -1.618193984032
v  1.291759014130 0.394193053246 -1.957069277763
v  1.291759014130 0.292600214481 -1.688520312309
v  1.113403916359 0.394193053246 -1.871117949486
v  1.163987040520 0.290512919426 -1.618193984032
v  0.948524594307 0.394193053246 -1.662942528725
v  1.065445899963 0.286206841469 -1.435590624809
v  0.845448434353 0.394193053246 -1.344297766685
v  1.013433337212 0.282238543034 -1.246372103691
v  0.816256642342 0.394193053246 -1.122014403343
v  0.989588141441 0.286039948463 -1.099196791649
v  0.845448434353 0.394193053246 -0.899730801582
v  0.997208535671 0.293286710978 -0.950006723404
v  0.928298175335 0.394193053246 -0.735681176186
v  1.038213729858 0.304338365793 -0.820248246193
v  1.088341236115 0.394193053246 -0.568596243858
v  1.136938333511 0.310615211725 -0.691659927368
v  1.174778819084 0.394193053246 -0.495889902115
v  1.291759014130 0.250609844923 -1.446859240532
v  1.291759014130 0.259122431278 -0.796027541161
v  1.291759014130 0.230094328523 -0.935372948647
v  1.291759014130 0.214558303356 -1.088319420815
v  1.291759014130 0.230405896902 -1.281877398491
# 54 vertices

vn -0.000000001668 0.998843312263 0.048084266484
vn -0.000000000477 0.998821139336 0.048541929573
vn -0.000000017422 0.997040748596 0.076874978840
vn -0.000000034481 0.997068703175 0.076511122286
vn 0.000000000000 0.998843312263 0.048084270209
vn -0.000034571323 0.999798536301 0.020070750266
vn 0.000070569564 0.999790728092 0.020458269864
vn -0.001100305701 0.999988913536 0.004580213688
vn -0.000090488786 0.999988973141 0.004700682126
vn -0.000000005304 0.999788939953 0.020545497537
vn -0.000000001369 0.984032034874 -0.177991434932
vn 0.000000000000 0.984393417835 -0.175981849432
vn 0.000000000000 0.984393417835 -0.175981834531
vn 0.000000000000 0.997068703175 0.076511129737
vn 0.001397089683 0.999986827374 0.004932950251
vn 0.000000000000 0.876920878887 -0.480634808540
vn -0.099609561265 0.885815739632 -0.453220009804
vn 0.014747727662 0.913706541061 -0.406106919050
vn -0.380625247955 0.830702006817 -0.406274020672
vn -0.270708143711 0.903179466724 -0.333142548800
vn -0.442315310240 0.841424942017 -0.310421019793
vn -0.351269066334 0.903787732124 -0.244495019317
vn -0.509589612484 0.845846295357 -0.157678216696
vn -0.384950101376 0.914008319378 -0.128071084619
vn -0.530211210251 0.847859025002 0.003343564458
vn -0.394549995661 0.918763637543 -0.014272773638
vn -0.502840101719 0.856070578098 0.119561716914
vn -0.366734832525 0.927087903023 0.077547580004
vn -0.409010082483 0.882473587990 0.232273742557
vn -0.328122377396 0.934006989002 0.141303405166
vn -0.237417936325 0.913911819458 0.329238384962
vn -0.228752568364 0.945918500423 0.230022788048
vn 0.000737582333 0.935783863068 0.352573454380
vn 0.001573612099 0.956856250763 0.290557533503
vn 0.237323150039 0.917644858360 0.318756341934
vn 0.257347702980 0.937478661537 0.234320119023
vn 0.379373937845 0.896264255047 0.229751527309
vn 0.330554991961 0.932358980179 0.146424636245
vn 0.500502824783 0.857450187206 0.119482561946
vn 0.368234068155 0.926481783390 0.077686384320
vn 0.529260516167 0.848445951939 0.004776434973
vn 0.394876867533 0.918641209602 -0.013059367426
vn 0.514324307442 0.843306243420 -0.155900761485
vn 0.383271187544 0.915064930916 -0.125536218286
vn 0.451977312565 0.835023224354 -0.313771754503
vn 0.346268594265 0.906720876694 -0.240739032626
vn 0.305839955807 0.863553583622 -0.400920361280
vn 0.253320813179 0.900441467762 -0.353601098061
vn 0.105763927102 0.904264867306 -0.413665384054
vn -0.000000009610 0.991731226444 0.128332450986
vn 0.000000038755 0.972045063972 -0.234794393182
vn 0.000000000000 0.989315450191 -0.145790785551
vn -0.000000013565 0.999872505665 -0.015968967229
vn -0.000000009672 0.995725631714 0.092360265553
# 54 vertex normals

# 19 texture coords

g Plane004
usemtl wire_115115115
s 1
f 70/81/40 71/17/41 72/18/42 73/77/43
f 74/78/44 71/17/41 75/19/45 76/82/46
f 77/88/47 78/86/48 75/19/45 79/85/49
f 79/85/49 75/19/45 71/17/41 70/81/40
f 80/20/50 81/73/51 73/77/43 72/18/42
f 82/70/52 80/20/50 72/18/42 83/74/53
f 83/74/53 72/18/42 71/17/41 74/78/44
f 78/86/48 84/87/54 76/82/46 75/19/45
f 85/21/55 86/64/56 87/22/57
f 86/64/56 88/61/58 89/23/59 87/22/57
f 88/61/58 90/62/60 91/24/61 89/23/59
f 90/62/60 92/63/62 93/25/63 91/24/61
f 92/63/62 94/65/64 95/26/65 93/25/63
f 94/65/64 96/66/66 97/27/67 95/26/65
f 96/66/66 98/71/68 99/28/69 97/27/67
f 98/71/68 100/75/70 101/29/71 99/28/69
f 100/75/70 102/79/72 103/30/73 101/29/71
f 102/79/72 104/83/74 105/31/75 103/30/73
f 104/83/74 106/84/76 107/32/77 105/31/75
f 106/84/76 108/80/78 109/33/79 107/32/77
f 108/80/78 110/76/80 111/34/81 109/33/79
f 110/76/80 112/72/82 113/35/83 111/34/81
f 112/72/82 114/69/84 115/36/85 113/35/83
f 114/69/84 116/67/86 117/37/87 115/36/85
f 116/67/86 118/68/88 87/22/57 117/37/87
f 118/68/88 85/21/55 87/22/57
f 105/31/75 107/32/77 119/38/89 103/30/73
f 117/37/87 87/22/57 120/39/90 115/36/85
f 115/36/85 120/39/90 121/40/91 113/35/83
f 113/35/83 121/40/91 122/41/92 111/34/81
f 109/33/79 111/34/81 122/41/92 123/42/93
f 107/32/77 109/33/79 123/42/93 119/38/89
f 119/38/89 99/28/69 101/29/71 103/30/73
f 89/23/59 91/24/61 120/39/90 87/22/57
f 91/24/61 93/25/63 121/40/91 120/39/90
f 93/25/63 95/26/65 122/41/92 121/40/91
f 122/41/92 95/26/65 97/27/67 123/42/93
f 123/42/93 97/27/67 99/28/69 119/38/89
f 85/21/55 118/68/88 81/73/51 80/20/50
f 86/64/56 85/21/55 80/20/50 82/70/52
# 38 polygons - 2 triangles

